<?xml version="1.0" standalone="no"?>
<!DOCTYPE svg PUBLIC "-//W3C//DTD SVG 20010904//EN"
 "http://www.w3.org/TR/2001/REC-SVG-20010904/DTD/svg10.dtd">
<svg version="1.0" xmlns="http://www.w3.org/2000/svg"
 width="432.000000pt" height="577.000000pt" viewBox="0 0 432.000000 577.000000"
 preserveAspectRatio="xMidYMid meet">

<g transform="translate(0.000000,577.000000) scale(0.100000,-0.100000)"
fill="#000000" stroke="none">
<path d="M2080 5533 c-145 -10 -337 -78 -459 -162 -52 -35 -61 -38 -108 -34
-103 10 -153 -20 -277 -170 -57 -68 -116 -105 -199 -124 -34 -8 -67 -19 -74
-25 -18 -15 -16 -54 4 -73 20 -20 85 -14 152 16 24 10 46 19 48 19 3 0 -10
-19 -27 -42 -158 -210 -320 -527 -425 -831 l-36 -103 -65 -28 c-165 -72 -242
-211 -231 -414 5 -109 28 -173 91 -255 l36 -47 -14 -178 c-14 -167 -9 -471 9
-552 4 -21 -3 -32 -42 -66 -27 -22 -62 -65 -78 -95 -27 -49 -30 -62 -30 -149
0 -88 3 -101 33 -163 18 -37 70 -116 114 -175 132 -175 153 -243 103 -336 -14
-26 -25 -58 -25 -72 0 -52 63 -40 102 21 13 19 25 35 28 35 3 0 30 -61 59
-136 119 -296 278 -531 518 -765 186 -181 372 -296 560 -344 62 -16 107 -34
123 -49 14 -13 36 -29 49 -36 22 -11 27 -10 43 10 26 32 87 34 99 3 5 -13 13
-23 19 -23 18 0 53 20 80 46 16 14 48 28 80 34 86 16 147 38 253 92 365 186
691 564 892 1034 l48 112 42 -44 c75 -79 119 -46 69 53 -52 104 -30 174 112
353 41 52 92 129 112 169 33 68 37 83 37 156 0 71 -4 88 -33 147 -29 60 -66
102 -108 126 -13 7 -13 22 1 126 18 140 20 346 4 513 l-12 121 37 51 c117 159
137 347 55 508 -39 77 -90 123 -182 166 -51 24 -69 38 -74 57 -27 116 -203
532 -284 674 -50 86 -145 232 -176 268 -12 13 -3 12 44 -7 91 -36 128 -40 153
-15 11 11 20 27 20 35 0 26 -35 52 -79 59 -50 8 -126 44 -161 77 -14 13 -51
56 -82 96 -87 108 -145 140 -241 130 -47 -4 -55 -1 -97 30 -148 114 -412 190
-610 176z m189 -28 c35 -4 98 -17 140 -30 70 -22 225 -103 278 -145 l23 -18
-28 -17 c-15 -10 -39 -29 -55 -43 l-27 -26 -75 37 c-111 54 -210 79 -350 84
-105 5 -133 2 -227 -21 -59 -14 -139 -41 -178 -61 l-70 -35 -36 32 c-20 18
-45 38 -55 44 -19 10 -19 11 -2 26 38 34 222 128 289 148 74 22 214 39 274 34
19 -2 64 -6 99 -9z m-673 -211 c114 -65 183 -200 169 -332 -16 -157 -54 -290
-175 -605 -77 -205 -95 -296 -70 -357 13 -32 45 -56 68 -51 8 1 26 -5 40 -15
26 -17 27 -17 10 2 -14 16 -14 22 -4 37 7 9 19 17 27 17 10 0 11 2 2 8 -7 4
-11 21 -10 37 2 22 -3 33 -18 40 -11 6 -25 26 -32 45 -11 33 -12 34 -12 8 -1
-17 -7 -28 -15 -28 -8 0 -22 -3 -32 -7 -15 -6 -16 -1 -10 38 3 24 16 72 28
107 17 48 26 62 42 62 16 0 17 -3 8 -12 -19 -19 -14 -33 6 -15 22 20 42 21 77
5 l26 -12 -23 -18 -23 -18 32 12 c28 11 35 9 67 -16 43 -32 46 -45 9 -39 -24
3 -22 1 7 -9 19 -7 45 -28 57 -47 26 -39 30 -59 8 -41 -8 6 -20 10 -27 7 -9
-4 -7 -6 4 -6 29 -2 58 -50 58 -98 l0 -45 -21 23 -21 24 16 -25 c20 -31 20
-71 0 -118 l-17 -37 -7 33 c-4 18 -11 36 -15 40 -4 4 -4 -4 0 -16 13 -43 -3
-91 -38 -112 -38 -24 -51 -25 -43 -5 18 44 17 47 -5 15 -19 -27 -33 -36 -59
-38 l-35 -4 20 23 20 23 -29 -22 c-29 -22 -60 -27 -90 -16 -12 5 -9 11 16 28
17 11 33 27 36 34 2 7 -7 2 -22 -12 -31 -31 -74 -34 -107 -6 l-24 19 26 1 c15
0 37 9 50 21 l24 21 -25 -16 c-39 -25 -85 -21 -110 11 -20 25 -20 28 -3 34 14
5 13 7 -9 12 -15 4 -28 16 -32 29 -10 39 -7 46 17 42 16 -3 15 -1 -5 7 -20 7
-28 18 -28 35 0 18 4 22 18 17 13 -5 12 -1 -5 19 -35 38 -29 89 6 56 8 -7 5 0
-5 16 -15 24 -16 34 -6 72 7 24 12 54 12 66 0 21 0 21 27 -3 18 -16 22 -17 11
-4 -16 20 -21 37 -19 64 1 11 4 11 18 0 15 -13 15 -12 4 9 -13 24 -7 62 10 62
5 0 9 8 9 18 0 26 35 94 43 86 4 -4 7 4 7 18 0 36 10 40 32 15 l19 -22 -16 27
c-10 16 -14 35 -10 48 l7 22 26 -24 c21 -18 23 -19 9 -2 -17 21 -24 74 -9 74
4 0 14 -6 22 -12 12 -11 12 -10 1 4 -17 23 -6 52 15 44 14 -5 15 -4 4 9 -13
15 -6 50 8 41 5 -3 6 8 4 25 -2 16 0 29 5 29 6 0 8 12 5 26 -4 24 -2 26 19 20
20 -6 21 -5 7 4 -10 6 -18 18 -18 25 0 8 8 15 18 16 10 0 12 3 5 6 -16 6 -17
33 -2 33 8 0 8 4 2 13 -6 6 -10 27 -10 45 0 25 5 32 21 33 20 0 20 1 -1 9 -27
11 -30 30 -5 31 15 1 15 2 0 6 -25 6 -33 52 -11 70 17 13 17 14 -2 5 -16 -9
-22 -5 -38 20 -15 25 -16 33 -5 46 11 15 11 15 -3 4 -17 -13 -49 -7 -49 9 0 5
-9 9 -20 9 -14 0 -18 5 -14 18 4 10 3 13 -3 6 -4 -6 -25 -13 -45 -16 -33 -3
-38 -1 -39 17 -2 18 -2 18 -6 -2 -2 -13 -10 -23 -16 -23 -7 0 -59 -43 -117
-95 -119 -109 -185 -147 -262 -149 -50 -1 -53 0 -56 25 -3 22 2 27 28 33 18 3
37 3 43 -1 6 -4 7 -1 2 7 -6 10 -4 12 8 7 9 -3 19 -2 23 4 3 6 11 8 17 6 7 -2
18 3 26 10 7 8 20 12 27 9 8 -3 13 -1 11 5 -1 6 13 19 31 29 18 10 32 22 32
26 -1 5 4 11 12 14 7 3 13 12 13 20 0 9 9 15 22 14 16 0 20 3 13 11 -11 14 12
40 24 28 4 -4 4 0 1 8 -8 22 75 94 123 107 51 14 119 4 168 -24z m1312 -3 c46
-24 96 -76 88 -90 -4 -6 -1 -11 7 -11 13 0 55 -50 49 -58 -5 -5 51 -52 62 -52
6 0 4 -5 -4 -10 -12 -8 -10 -10 9 -10 16 0 21 -4 18 -14 -4 -10 0 -12 14 -9
10 3 25 1 32 -5 15 -12 114 -42 120 -36 2 2 10 -2 16 -10 10 -11 10 -20 1 -36
-10 -19 -17 -21 -53 -16 -79 12 -161 62 -265 161 -55 52 -105 95 -111 95 -6 0
-11 6 -12 13 0 7 -2 8 -5 1 -3 -7 -20 -8 -49 -4 -25 4 -45 3 -45 -2 0 -4 -5
-8 -12 -8 -6 0 -20 -7 -30 -16 -15 -14 -20 -15 -35 -3 -16 13 -17 12 -5 -3 15
-19 1 -33 -26 -24 -15 5 -15 4 1 -8 15 -11 15 -16 5 -27 -7 -8 -13 -20 -14
-26 -1 -7 -2 -22 -2 -33 -1 -11 -10 -21 -19 -21 -17 -1 -17 -2 0 -6 9 -2 15
-8 12 -13 -3 -4 -6 -28 -6 -52 -1 -23 -6 -48 -11 -54 -5 -8 -3 -14 7 -18 8 -3
15 -1 15 5 0 6 14 -1 31 -16 40 -33 54 -22 54 45 0 55 8 60 41 29 18 -17 26
-19 43 -10 30 17 26 27 -19 48 -40 18 -52 33 -27 33 15 0 151 -93 162 -110 4
-6 -1 -18 -11 -25 -25 -19 -40 -19 -24 0 10 13 10 19 -5 35 -20 23 -45 26 -63
8 -9 -9 -8 -16 5 -30 22 -24 8 -36 -16 -14 -19 17 -21 16 -57 -17 l-38 -34 49
-52 c46 -48 50 -51 63 -34 8 11 12 33 9 56 -6 43 -2 45 29 16 l23 -21 34 26
c19 14 39 26 46 26 6 0 21 -21 34 -46 21 -45 21 -47 3 -58 -10 -6 -41 -26 -69
-44 -54 -35 -78 -35 -34 1 l27 22 -24 22 -23 22 -27 -28 -27 -28 66 -89 c37
-49 74 -101 83 -116 9 -16 19 -28 23 -28 16 0 42 43 42 70 0 33 8 38 27 15 16
-19 25 -19 55 1 20 13 23 19 14 36 -10 19 -11 19 -30 2 -10 -9 -19 -12 -19 -7
0 17 28 36 44 30 8 -3 27 -27 42 -52 25 -43 25 -48 11 -63 -9 -9 -20 -13 -24
-9 -3 4 -2 12 5 19 8 8 8 17 1 30 -10 18 -11 18 -40 -3 -24 -17 -28 -24 -18
-35 7 -8 9 -18 5 -22 -4 -4 -12 1 -17 10 -9 15 -13 15 -53 -10 l-43 -27 23
-36 c56 -90 214 -434 214 -468 0 -31 -19 -3 -44 67 -71 188 -169 374 -288 543
-99 141 -242 299 -270 299 -2 0 -3 -13 -3 -30 0 -16 4 -30 9 -30 4 0 6 -11 4
-25 -3 -14 -1 -25 5 -25 5 0 7 -13 5 -29 -3 -21 -1 -28 9 -24 17 7 17 -28 1
-47 -11 -12 -10 -12 4 -1 15 11 19 11 24 -4 4 -10 1 -27 -6 -39 -12 -18 -11
-19 2 -9 17 15 28 7 28 -19 0 -10 4 -18 9 -18 15 0 24 -41 12 -53 -6 -6 -11
-15 -11 -21 0 -5 6 -1 14 10 14 18 15 18 21 1 4 -9 5 -26 2 -38 -4 -16 -3 -18
9 -8 11 9 14 8 15 -7 1 -11 1 -25 0 -33 -2 -7 2 -10 8 -7 19 12 24 -43 7 -72
l-17 -27 19 22 c11 12 22 19 26 16 11 -11 6 -48 -10 -73 l-16 -25 20 23 c11
12 23 22 26 22 10 0 7 -48 -4 -55 -5 -3 -10 -11 -10 -18 0 -6 6 -2 14 8 13 18
14 18 21 -4 4 -14 1 -32 -10 -49 -10 -15 -12 -21 -4 -14 7 6 17 12 21 12 15 0
8 -73 -9 -94 -10 -12 -11 -15 -3 -8 21 18 30 15 30 -13 0 -14 -9 -34 -20 -45
-21 -21 -13 -28 9 -7 11 10 13 9 7 -6 -3 -10 -6 -25 -6 -32 0 -7 -12 -18 -27
-24 -21 -8 -22 -10 -5 -7 12 2 22 -1 22 -7 -1 -33 -15 -57 -39 -66 -18 -7 -21
-10 -8 -10 17 -1 17 -3 -3 -31 -25 -35 -69 -40 -110 -14 l-25 16 24 -21 c13
-12 35 -21 50 -21 l26 0 -25 -20 c-35 -27 -76 -25 -106 6 -15 14 -24 19 -22
12 3 -7 19 -23 37 -35 l32 -22 -36 -7 c-29 -5 -43 -2 -68 16 -31 23 -31 23
-13 2 19 -22 19 -22 -3 -22 -37 0 -62 19 -82 63 -10 23 -19 35 -18 27 0 -8 6
-26 14 -40 21 -37 18 -42 -15 -25 -45 23 -64 58 -57 106 6 47 -2 45 -12 -3
l-7 -33 -16 30 c-9 17 -20 63 -23 101 -8 74 1 105 34 132 14 11 14 11 -3 6
-17 -7 -17 -5 -3 22 25 48 52 67 91 62 19 -2 32 0 30 4 -3 4 -22 8 -42 8 l-37
1 33 29 c31 29 76 39 98 23 5 -5 1 0 -9 9 -17 16 -17 17 2 27 29 16 62 13 85
-6 l21 -18 -20 24 -20 23 24 -3 c20 -3 29 -15 44 -59 10 -30 21 -75 24 -101
l5 -46 -31 5 c-27 4 -31 9 -32 36 l-2 31 -4 -30 c-6 -39 -41 -68 -63 -52 -12
9 -13 9 -2 -3 6 -8 12 -30 12 -50 0 -19 7 -45 15 -57 11 -16 12 -22 2 -26 -6
-2 4 -3 23 -2 50 4 69 14 85 46 36 68 16 170 -89 452 -114 306 -156 521 -126
645 22 95 138 218 220 235 41 9 108 -1 148 -22z m-1438 -113 c0 -8 3 -9 8 -3
12 17 32 16 39 -1 4 -12 7 -13 14 -3 6 10 11 7 18 -11 5 -14 10 -19 10 -12 1
7 6 10 12 6 8 -4 6 -10 -6 -17 -20 -11 -57 -41 -91 -75 -13 -13 -24 -21 -24
-19 0 8 -182 -182 -218 -228 -127 -163 -235 -359 -343 -625 -71 -177 -72 -177
-147 -179 -30 -1 -32 1 -26 27 29 127 126 362 221 536 92 166 300 456 317 439
3 -3 6 0 6 9 0 20 147 161 160 153 5 -3 10 -1 10 4 0 6 9 11 20 11 11 0 20 -6
20 -12z m636 -7 c-3 -4 -34 -19 -68 -32 -62 -24 -62 -24 -28 -27 44 -4 64 -20
50 -37 -6 -8 -45 -14 -98 -17 -71 -3 -97 -9 -135 -30 -29 -17 -47 -22 -47 -14
0 12 79 61 180 111 90 45 159 67 146 46z m250 -61 c110 -55 172 -95 161 -106
-2 -3 -28 8 -56 23 -42 21 -70 28 -138 31 -60 3 -86 9 -90 19 -7 19 1 25 44
32 l37 6 -62 25 c-34 14 -62 28 -62 33 0 14 40 -1 166 -63z m535 55 c14 -8 53
-44 88 -80 48 -52 61 -71 56 -88 -5 -17 -4 -19 4 -7 8 11 11 12 11 2 0 -7 4
-11 8 -8 8 5 64 -65 143 -179 96 -138 217 -366 282 -531 30 -76 87 -259 87
-278 0 -8 -40 -8 -77 0 -27 5 -32 14 -62 97 -103 287 -246 560 -381 728 -27
33 -50 64 -52 68 -2 3 -38 37 -80 75 -43 38 -78 76 -78 83 0 8 -4 11 -10 8 -5
-3 -10 1 -10 10 0 9 -5 13 -11 9 -8 -4 -9 4 -5 27 l6 34 -14 -30 c-10 -21 -15
-25 -15 -12 -1 11 -6 15 -12 11 -9 -5 -10 1 -5 22 5 23 4 25 -4 12 -6 -9 -17
-15 -25 -12 -8 4 -12 10 -9 15 3 5 10 7 15 4 5 -4 9 1 9 10 0 11 5 15 15 11 8
-3 15 -1 15 4 0 13 81 10 111 -5z m-676 -125 c16 -33 32 -60 36 -60 3 0 12 7
19 15 32 38 54 4 48 -76 l-3 -44 -160 0 -160 0 3 55 c4 60 15 81 34 62 22 -22
37 -12 64 41 47 92 54 100 73 83 10 -9 30 -43 46 -76z m-665 -3 c0 -5 -6 -4
-14 2 -13 11 -46 6 -46 -7 0 -17 44 -50 59 -44 13 5 14 3 4 -10 -11 -12 -8
-19 12 -38 28 -26 31 -42 12 -58 -15 -13 -57 -5 -57 10 0 6 11 7 25 4 14 -4
25 -2 25 3 0 16 -40 33 -61 28 -22 -6 -23 -3 -8 25 9 17 7 26 -12 51 l-22 30
29 24 c27 21 30 22 42 6 6 -9 12 -21 12 -26z m-113 -119 c7 -26 8 -44 2 -46
-15 -6 -10 -28 12 -48 20 -18 21 -18 35 1 9 13 11 22 4 29 -5 5 -10 17 -10 25
0 11 5 9 20 -7 17 -18 19 -26 9 -44 -23 -46 -29 -49 -60 -32 -22 11 -34 12
-50 3 -28 -14 -35 -5 -17 24 15 21 14 25 -8 50 -31 36 -30 49 4 69 40 25 47
22 59 -24z m193 -26 c0 -4 -32 -39 -71 -77 -82 -82 -184 -206 -261 -322 -63
-94 -180 -319 -229 -440 -18 -46 -37 -83 -42 -83 -5 0 -6 7 -3 16 18 48 18 62
-4 69 -13 4 -30 0 -45 -9 -36 -23 -46 -21 -35 9 9 23 6 27 -18 37 -15 7 -29
13 -31 14 -2 2 5 23 14 48 15 38 22 46 44 46 14 0 35 3 47 6 17 4 24 -2 39
-38 10 -24 17 -56 16 -73 -4 -40 -1 -36 53 84 101 228 249 450 416 624 85 90
110 110 110 89z m-310 -69 c0 -26 31 -53 61 -53 15 0 31 -4 34 -10 4 -6 -11
-10 -38 -10 -24 0 -47 -3 -51 -7 -4 -4 10 -22 31 -41 33 -29 35 -32 13 -26
-14 4 -42 7 -62 7 -41 -1 -47 7 -23 27 14 12 12 17 -17 47 l-33 34 30 24 c35
29 55 32 55 8z m865 7 c3 -5 17 -10 30 -10 13 0 36 -6 51 -12 l27 -13 -24 -6
c-21 -6 -19 -7 10 -8 37 -1 134 -52 113 -59 -7 -2 4 -13 26 -23 39 -20 102
-89 68 -76 -9 4 2 -11 24 -32 52 -49 52 -68 0 -41 -21 11 -45 20 -51 20 -7 0
12 -12 42 -27 31 -16 63 -42 76 -62 27 -41 30 -60 6 -39 -41 34 -45 28 -5 -8
28 -26 44 -51 49 -73 l6 -35 -34 23 -34 23 33 -29 c18 -15 32 -31 32 -34 0 -3
-18 -12 -39 -19 -35 -11 -42 -11 -68 7 -15 11 -39 23 -53 27 -14 4 -5 -4 20
-17 25 -13 45 -28 45 -33 0 -5 -20 -28 -45 -51 -41 -37 -47 -40 -65 -27 -10 8
-24 14 -29 14 -6 -1 1 -8 17 -16 29 -16 32 -21 18 -43 -8 -12 -14 -13 -36 -3
-37 17 -45 14 -12 -4 22 -12 27 -20 21 -37 -4 -12 -9 -24 -13 -27 -7 -6 -11
-37 -12 -115 0 -40 6 -76 20 -108 25 -58 25 -54 4 -60 -12 -3 -9 -5 8 -6 14 0
36 -12 48 -25 13 -14 36 -30 52 -36 16 -7 29 -16 29 -20 0 -5 9 -6 19 -3 41
11 67 -126 40 -208 -7 -19 -23 -49 -36 -67 -16 -21 -20 -32 -12 -31 8 1 39
-10 69 -24 80 -39 166 -38 237 3 61 35 93 74 123 150 19 47 21 70 18 156 -3
91 -7 107 -38 170 -33 66 -35 73 -32 159 3 79 -8 188 -25 231 -3 8 0 14 7 14
6 0 14 -9 17 -19 3 -11 11 -17 18 -15 15 6 26 -8 36 -50 5 -25 7 -26 8 -8 2
40 21 13 23 -31 1 -38 2 -39 5 -9 4 28 7 31 19 21 8 -6 15 -28 15 -48 1 -23 3
-28 6 -13 7 33 23 16 24 -26 1 -24 3 -29 6 -14 6 31 23 17 24 -21 1 -21 3 -25
6 -13 5 18 6 18 18 -4 11 -21 11 -30 0 -57 -17 -40 -11 -43 8 -6 14 26 15 26
21 5 4 -12 2 -32 -4 -44 -10 -21 -10 -21 3 -5 13 16 15 16 21 1 3 -9 0 -30 -9
-48 l-15 -31 20 24 c32 38 31 -16 -1 -64 l-20 -30 25 28 c32 35 39 34 34 -3
-3 -16 -1 -30 4 -30 13 0 9 -35 -7 -56 -8 -10 -15 -23 -15 -28 0 -6 7 -1 15
10 14 18 14 18 15 -4 0 -13 -12 -35 -27 -49 l-28 -27 28 17 c37 24 37 1 0 -45
-21 -25 -22 -28 -5 -14 14 12 22 14 22 7 0 -25 -23 -53 -53 -66 -18 -8 -25
-14 -17 -15 9 0 26 7 38 16 13 9 22 11 22 4 0 -15 -46 -60 -61 -60 -7 0 -10
-3 -7 -6 4 -3 16 -1 27 6 27 14 27 -1 1 -25 -11 -10 -17 -22 -14 -27 8 -12
-25 -48 -45 -49 -13 0 -13 -2 1 -7 16 -7 16 -10 -7 -35 -15 -16 -37 -27 -53
-28 -26 -1 -26 -1 -3 -8 l23 -6 -25 -14 c-14 -7 -39 -12 -56 -9 -16 2 -28 1
-25 -4 3 -4 14 -8 26 -8 17 0 18 -2 8 -15 -7 -8 -26 -15 -42 -15 -16 0 -27 -4
-24 -9 3 -5 -1 -12 -10 -15 -33 -13 -74 -5 -106 20 l-33 26 33 -31 c17 -17 32
-33 32 -36 0 -9 -61 -5 -81 6 -11 5 -29 25 -39 42 -11 18 -20 27 -20 20 0 -7
14 -28 31 -48 l31 -35 -30 0 c-18 0 -44 11 -64 27 l-33 27 24 -27 24 -27 -27
0 c-17 0 -39 11 -57 29 -33 34 -40 29 -8 -5 l22 -23 -27 -7 c-34 -8 -73 17
-91 59 -8 18 -14 25 -15 15 0 -10 14 -34 32 -53 l31 -37 -28 -22 -29 -23 -24
26 -23 26 21 -31 c15 -22 19 -38 15 -57 -6 -23 -10 -25 -29 -16 -20 11 -20 11
2 -10 12 -12 22 -30 22 -41 0 -16 -5 -19 -32 -14 l-33 5 35 -13 c24 -9 36 -20
38 -36 3 -20 0 -22 -25 -17 -27 6 -27 6 4 -9 31 -14 55 -57 35 -64 -5 -1 1
-14 14 -27 31 -31 32 -55 2 -49 -18 3 -17 2 4 -6 15 -7 31 -24 37 -41 10 -28
9 -30 -12 -24 -18 5 -17 3 6 -12 15 -10 27 -24 27 -33 0 -8 3 -26 7 -39 5 -21
4 -22 -16 -11 -12 6 -27 9 -34 6 -7 -2 -5 -5 5 -5 26 -1 58 -50 58 -88 0 -27
-3 -34 -15 -29 -44 18 -48 17 -22 -3 18 -15 27 -32 27 -52 0 -34 -2 -35 -38
-12 l-27 18 27 -32 c17 -21 24 -40 21 -53 -7 -25 -11 -25 -42 3 l-26 22 23
-26 c21 -24 29 -68 16 -82 -4 -3 -15 4 -26 16 l-20 22 16 -25 c26 -40 18 -100
-9 -64 -9 13 -10 9 -7 -20 2 -20 1 -44 -2 -53 -6 -15 -8 -15 -17 -3 -7 11 -8
9 -4 -10 3 -14 1 -32 -5 -40 -8 -13 -11 -12 -25 5 -14 19 -15 18 -4 -7 10 -22
9 -37 -1 -68 -9 -28 -16 -37 -22 -28 -5 8 -8 -1 -8 -23 0 -44 -9 -54 -26 -31
-12 14 -12 12 -3 -15 9 -26 7 -42 -9 -85 -49 -132 -85 -364 -72 -460 7 -46 4
-67 -10 -105 -11 -27 -19 -43 -20 -38 0 6 -9 -1 -20 -14 -17 -20 -21 -21 -26
-6 -4 10 3 29 16 48 l23 32 -25 -23 -26 -23 -6 27 c-5 20 -1 36 15 58 l22 31
-26 -24 c-19 -17 -27 -20 -27 -10 0 8 -3 24 -6 36 -4 15 2 29 20 47 14 14 21
26 17 26 -5 0 -14 -7 -21 -15 -19 -23 -30 -18 -30 16 0 22 9 40 33 62 34 33
17 28 -20 -6 l-23 -20 0 35 c0 26 8 45 29 67 34 36 29 42 -7 9 l-24 -23 6 40
c3 22 6 54 6 71 0 23 8 39 31 58 17 14 38 26 47 27 10 0 12 3 5 5 -6 3 -26 -2
-44 -11 l-32 -17 7 29 c4 15 17 38 29 51 17 18 18 22 4 16 -26 -10 -21 16 11
50 15 17 18 24 8 16 -18 -14 -19 -13 -12 15 4 17 19 40 34 53 26 23 26 23 4
17 -23 -7 -23 -6 -8 24 9 16 24 35 33 40 10 6 12 11 6 11 -25 0 -13 30 20 51
22 14 25 19 10 14 -13 -3 -23 -4 -23 0 0 15 32 65 47 75 15 10 15 11 2 7 -26
-8 -12 29 20 54 22 18 23 21 5 15 -19 -6 -21 -3 -16 20 3 15 18 34 36 45 32
20 29 27 -5 9 -15 -8 -19 -7 -19 4 0 27 23 66 42 72 11 3 17 8 15 11 -3 2 -15
0 -26 -7 -18 -9 -21 -8 -21 10 0 11 8 33 17 48 17 26 17 26 0 13 -15 -12 -17
-11 -17 16 0 16 7 40 17 53 9 14 10 19 3 13 -22 -20 -30 -15 -30 16 0 20 9 36
26 50 15 12 23 21 18 21 -4 0 -18 -9 -30 -21 l-22 -21 -7 22 c-5 15 0 32 16
54 l22 31 -25 -23 c-39 -35 -54 3 -22 56 16 25 15 25 -9 -3 l-25 -30 -8 29
c-5 21 -2 39 10 60 l16 31 -23 -28 c-18 -21 -26 -24 -35 -15 -15 15 -15 37 1
58 6 9 2 6 -9 -6 -21 -21 -23 -22 -37 -6 -13 15 -14 21 -2 50 8 17 12 32 9 32
-3 0 -12 -16 -20 -36 -14 -34 -16 -35 -37 -21 -12 7 -32 13 -44 12 -15 -1 -23
4 -23 15 0 9 -7 25 -15 36 -13 17 -13 16 -2 -14 11 -30 10 -35 -7 -48 -18 -13
-21 -11 -32 15 -7 16 -18 32 -25 36 -7 5 -5 -2 4 -16 35 -50 5 -92 -34 -48
l-20 24 16 -27 c13 -21 14 -31 5 -47 -13 -26 -27 -27 -35 -2 -3 11 -12 22 -20
25 -10 4 -8 -4 7 -24 19 -26 20 -33 8 -55 -7 -13 -17 -22 -22 -19 -4 3 -8 -6
-8 -19 0 -36 -10 -38 -37 -9 l-25 27 21 -29 c22 -30 27 -61 12 -71 -5 -3 -12
-1 -16 5 -3 5 -16 15 -28 21 -19 10 -18 7 6 -18 15 -17 27 -40 27 -56 0 -32
-6 -33 -34 -10 -18 16 -18 15 2 -11 12 -16 22 -42 22 -59 l0 -30 -22 19 -22
19 22 -29 c22 -28 31 -83 12 -71 -5 3 -3 -10 5 -29 20 -47 19 -47 -12 -41 -25
5 -26 4 -6 -4 24 -11 43 -40 43 -66 0 -13 -4 -14 -21 -5 -11 6 -25 9 -32 6 -7
-2 -5 -5 4 -5 23 -1 69 -40 69 -57 0 -11 -6 -14 -22 -9 -22 6 -22 5 1 -8 41
-24 69 -91 34 -81 -11 3 -9 0 3 -7 26 -13 50 -59 32 -59 -6 0 -2 -10 9 -22 11
-13 23 -31 27 -42 5 -14 3 -17 -11 -12 -14 6 -13 2 4 -16 24 -26 47 -78 34
-78 -5 0 -14 7 -21 15 -7 8 -17 15 -22 15 -5 0 7 -14 27 -31 19 -17 35 -37 35
-45 0 -16 -16 -19 -25 -4 -3 6 -10 10 -16 10 -5 0 4 -12 20 -27 17 -16 33 -41
37 -56 l7 -29 -33 17 c-17 9 -34 14 -38 11 -3 -3 0 -6 6 -6 22 0 72 -52 72
-76 0 -27 -12 -31 -30 -9 -7 8 -16 15 -21 15 -5 0 4 -12 20 -27 16 -16 33 -44
37 -63 6 -33 6 -34 -12 -19 -36 30 -49 32 -22 3 27 -30 31 -42 29 -82 -1 -14
-5 -21 -12 -16 -8 4 -7 0 1 -15 6 -12 8 -31 5 -42 -6 -16 -9 -18 -21 -8 -13
11 -14 9 -3 -14 9 -21 8 -38 -6 -91 -10 -36 -22 -63 -27 -60 -5 3 -6 -6 -2
-20 7 -30 -3 -34 -23 -8 -13 15 -13 15 -3 -6 6 -13 10 -33 8 -45 -2 -14 -14 9
-33 64 -20 56 -28 94 -24 110 20 72 -4 291 -49 439 -27 92 -30 112 -19 150 l8
25 -14 -24 c-12 -20 -15 -21 -20 -6 -4 9 -7 28 -7 41 0 14 -4 23 -8 20 -15 -9
-32 63 -21 93 8 23 7 24 -4 9 -17 -22 -27 -13 -27 24 0 16 -4 27 -10 23 -15
-9 -24 44 -11 73 10 24 10 25 -2 10 -20 -26 -27 -22 -27 13 0 16 -4 28 -9 25
-5 -3 -12 6 -16 21 -4 19 0 35 16 57 l22 31 -26 -24 c-15 -14 -27 -20 -27 -14
0 6 -2 18 -6 26 -3 8 7 29 22 47 24 28 25 31 6 19 -12 -8 -22 -17 -22 -21 0
-5 -4 -8 -10 -8 -5 0 -10 16 -10 35 0 29 6 39 33 55 17 11 27 20 21 20 -5 0
-19 -7 -30 -15 -29 -22 -34 -18 -34 25 0 30 7 47 25 65 24 25 21 36 -4 13 -11
-11 -13 -9 -7 12 3 14 6 33 6 43 0 9 15 26 33 37 32 20 31 28 -2 10 -15 -8
-17 -6 -13 15 5 30 23 45 65 56 l32 9 -37 -4 c-36 -4 -36 -4 -26 25 7 19 19
31 36 35 43 9 50 14 15 11 -20 -2 -33 1 -33 8 0 22 31 54 58 58 21 3 20 4 -6
3 -28 -2 -31 0 -25 19 4 11 7 33 8 49 0 18 11 37 28 52 16 13 24 24 18 24 -5
0 -13 -4 -16 -10 -11 -18 -24 -11 -31 16 -5 19 0 32 22 56 24 26 25 29 7 19
-12 -6 -26 -19 -31 -28 -9 -15 -13 -14 -41 10 -30 25 -31 26 -11 37 20 11 55
68 47 77 -3 2 -8 -5 -12 -16 -10 -34 -60 -69 -89 -64 -32 6 -32 8 -1 45 14 16
25 37 24 46 0 11 -4 8 -10 -8 -17 -41 -50 -70 -81 -70 -21 0 -27 4 -22 13 6
10 4 10 -7 0 -7 -7 -28 -13 -47 -13 l-34 0 31 35 c17 20 31 41 31 48 0 7 -9
-2 -20 -20 -10 -17 -28 -37 -39 -42 -20 -11 -81 -15 -81 -6 0 3 15 19 33 36
l32 31 -33 -26 c-32 -25 -73 -33 -106 -20 -13 5 -9 13 21 41 31 29 32 30 5 9
-36 -28 -62 -32 -94 -15 -18 10 -17 12 22 31 22 11 39 23 36 25 -3 3 -15 -2
-28 -11 -39 -27 -68 -20 -115 29 -24 25 -43 50 -43 55 0 6 -9 19 -20 30 -22
22 -27 45 -7 34 6 -4 -1 5 -17 20 -31 30 -30 44 4 26 11 -6 26 -9 33 -6 7 2 5
5 -4 5 -23 1 -69 40 -69 57 0 9 5 12 11 8 7 -4 1 7 -11 24 -26 35 -20 54 8 29
10 -10 22 -17 26 -17 4 0 -6 11 -22 25 -26 22 -30 32 -30 76 l0 50 27 -23 c26
-23 26 -23 -1 8 -17 18 -28 42 -28 59 l0 28 25 -27 c13 -14 27 -26 31 -26 4 0
-5 12 -20 26 -31 31 -40 98 -9 73 15 -13 15 -12 4 9 -7 13 -10 31 -7 39 5 13
13 9 39 -19 17 -19 25 -25 16 -14 -29 37 -40 66 -33 88 5 16 8 18 15 7 7 -10
8 -5 3 12 -3 15 -1 30 5 33 6 4 11 3 11 -1 0 -5 7 -18 15 -29 13 -17 13 -16 3
12 -6 17 -8 43 -4 59 l7 29 19 -42 c11 -23 22 -42 25 -42 3 0 -1 13 -10 30
-17 32 -20 76 -6 85 5 3 12 -3 14 -12 3 -10 5 -4 6 14 1 36 17 53 24 26 3 -13
5 -12 6 5 0 13 7 33 13 45 12 21 13 21 19 -13 l6 -35 2 33 c1 45 20 80 32 61
7 -11 9 -9 9 7 0 34 28 38 33 6 3 -21 4 -19 6 10 1 34 15 57 28 45 2 -3 -3
-40 -13 -83 -12 -56 -15 -101 -11 -165 5 -78 3 -91 -14 -113 -63 -81 -85 -282
-40 -381 67 -149 217 -209 354 -141 30 14 59 26 65 26 6 0 0 16 -13 36 -14 20
-30 55 -36 78 -21 77 11 201 49 194 34 -6 142 73 142 102 0 6 10 15 23 20 12
5 16 9 10 9 -18 1 -16 16 3 35 8 9 11 16 6 16 -6 0 -8 9 -5 20 3 11 10 20 17
20 6 0 5 4 -3 9 -11 7 -11 15 -3 39 7 20 7 32 1 34 -5 2 -11 14 -13 28 -1 14
-8 35 -15 48 -10 18 -10 26 0 38 10 12 9 13 -4 8 -10 -3 -20 2 -27 15 -10 20
-7 23 32 41 24 11 38 20 31 20 -7 0 -28 -8 -48 -17 -34 -16 -36 -16 -50 3 -8
10 -15 22 -15 26 0 11 87 40 147 49 l58 8 -61 -3 c-34 -2 -82 -13 -108 -25
-44 -19 -49 -19 -72 -4 -28 18 -21 34 27 53 16 7 27 15 25 18 -3 2 -24 -7 -48
-20 -42 -25 -44 -25 -81 -9 -37 16 -38 17 -20 34 11 9 44 30 74 47 30 16 50
30 46 30 -13 0 -70 -31 -106 -58 -27 -20 -33 -22 -28 -8 4 10 7 24 7 31 0 8
15 31 33 52 17 21 24 32 15 24 -21 -15 -22 -12 -8 23 5 14 28 39 51 56 45 32
46 41 1 13 l-27 -18 21 35 c11 19 38 45 60 57 39 22 41 33 3 12 -18 -9 -19 -8
-10 9 14 27 69 72 87 72 9 0 13 4 9 9 -8 14 65 61 93 61 13 0 21 4 18 9 -7 11
38 31 69 31 13 0 27 5 30 10 3 6 21 10 40 10 19 0 37 -4 40 -10z m928 -129
c33 -48 34 -55 2 -69 -28 -13 -35 2 -7 17 13 8 15 12 5 22 -20 20 -69 -21 -65
-52 3 -20 2 -21 -12 -10 -13 11 -20 9 -46 -9 -34 -24 -36 -21 -14 22 9 17 14
39 11 49 -7 25 9 24 25 0 11 -18 12 -18 45 3 36 23 38 42 4 39 -19 -3 -20 0
-11 17 13 25 29 18 63 -29z m-1898 7 c14 -6 25 -15 25 -20 0 -12 -28 -10 -36
3 -4 8 -9 8 -17 0 -13 -13 18 -40 46 -41 18 0 25 -30 7 -30 -20 0 -9 -20 18
-34 26 -14 28 -13 44 14 11 20 13 31 5 39 -16 16 -4 21 15 7 17 -12 17 -16 -5
-55 -16 -29 -26 -39 -37 -34 -20 9 -61 8 -83 -1 -16 -8 -16 -6 -6 17 10 23 8
28 -20 54 l-31 28 20 33 c23 37 21 36 55 20z m-27 -176 c34 -18 60 -37 57 -42
-3 -6 -26 -10 -51 -10 -53 0 -60 -21 -14 -45 17 -9 30 -18 30 -20 0 -3 -23 -5
-51 -5 -45 0 -50 2 -44 19 4 14 -2 24 -25 37 -53 32 -44 37 55 35 l60 -1 -29
16 c-15 9 -37 14 -47 11 -10 -3 -19 -1 -19 3 0 5 -3 15 -6 23 -8 21 10 17 84
-21z m2024 -91 c35 18 38 18 46 2 30 -58 26 -68 -49 -112 -39 -23 -72 -41 -74
-39 -9 12 -29 54 -27 61 1 4 -2 7 -8 7 -5 0 -1 14 10 32 12 20 17 42 14 62
l-5 31 28 -32 28 -31 37 19z m-2152 -43 c0 -6 7 -19 16 -29 12 -13 13 -22 5
-37 -8 -16 -7 -21 5 -26 25 -10 33 -7 44 15 9 16 8 25 -6 40 -24 26 -14 32 15
8 22 -18 23 -21 9 -56 -12 -29 -21 -36 -44 -38 -16 -1 -38 -5 -48 -10 -16 -7
-18 -5 -14 18 3 15 2 27 -1 27 -3 0 -17 9 -30 19 l-24 18 28 37 c25 33 45 39
45 14z m2168 -94 c8 -14 12 -14 45 0 35 14 38 14 47 -4 5 -10 10 -31 10 -47 0
-24 -8 -33 -59 -61 -32 -17 -61 -32 -65 -32 -3 0 -15 17 -25 39 -20 38 -20 39
-1 56 11 10 20 29 20 42 0 26 15 30 28 7z m-2238 -45 c0 -6 -4 -7 -10 -4 -5 3
-10 11 -10 16 0 6 5 7 10 4 6 -3 10 -11 10 -16z m641 -213 c8 -17 8 -29 0 -45
-17 -30 -31 -17 -31 30 0 44 15 51 31 15z m1040 -69 c-7 -7 -14 -1 -21 18 -8
22 -7 33 7 54 l18 26 3 -44 c2 -24 -1 -48 -7 -54z m-1887 -8 c14 -17 26 -27
26 -23 0 4 -10 18 -22 31 l-21 23 40 0 c31 0 45 -6 57 -22 l17 -23 -12 24
c-10 22 -10 23 12 18 13 -4 29 -7 36 -7 7 0 19 -12 28 -27 13 -23 15 -24 10
-5 -7 25 -6 26 29 12 16 -6 29 -22 36 -42 8 -28 9 -29 6 -5 -4 31 -5 31 29 15
20 -9 25 -17 20 -32 -3 -12 -11 -42 -18 -68 -14 -50 -60 -108 -87 -108 -9 0
-16 -8 -16 -17 -1 -10 -7 -46 -14 -81 -13 -57 -12 -68 8 -137 26 -87 28 -117
8 -109 -16 6 -36 47 -36 74 0 11 -4 20 -9 20 -4 0 -14 -42 -20 -92 -15 -111
-19 -124 -30 -112 -15 15 54 394 81 449 6 11 20 31 32 45 l21 25 -26 -22 c-27
-24 -54 -30 -64 -13 -3 6 1 17 9 26 25 25 19 30 -7 6 -22 -21 -67 -31 -67 -14
0 4 7 16 15 26 8 11 15 25 15 30 0 6 -9 -4 -20 -22 -18 -29 -25 -33 -58 -31
-48 3 -99 -25 -130 -72 -21 -30 -23 -43 -20 -111 6 -102 47 -186 124 -257 31
-28 50 -51 42 -51 -7 -1 3 -8 22 -16 45 -19 47 -22 26 -37 -16 -12 -14 -13 18
-9 26 3 37 0 42 -11 3 -8 20 -21 37 -28 l32 -14 -30 -6 -30 -7 33 -1 c18 0 43
-7 55 -13 21 -12 21 -13 -13 -19 l-35 -6 36 -2 c23 -1 43 -9 57 -24 l21 -22
-42 2 -42 2 44 -8 c75 -13 84 -46 39 -139 -34 -70 -118 -127 -118 -81 0 6 13
24 29 40 16 16 26 29 22 29 -5 0 -20 -11 -33 -25 -22 -21 -27 -23 -37 -11 -14
17 8 68 36 85 10 6 13 11 6 11 -7 0 -22 -13 -35 -30 -26 -36 -34 -37 -43 -9
-5 14 0 32 15 53 l21 31 -29 -33 c-25 -28 -31 -31 -41 -18 -17 20 -6 51 26 76
14 11 22 20 17 20 -4 0 -23 -14 -41 -32 -26 -25 -35 -29 -47 -19 -18 15 -11
43 20 76 13 14 19 25 14 25 -9 0 -46 -44 -52 -62 -3 -8 -10 -7 -26 1 -19 10
-21 15 -11 34 6 12 19 31 28 43 9 11 2 5 -15 -13 -56 -60 -89 -15 -37 49 15
18 19 26 9 18 -11 -8 -27 -28 -37 -44 l-17 -28 -31 31 c-17 17 -31 29 -31 26
0 -4 -4 -4 -10 0 -6 4 -6 15 0 33 9 24 9 25 -4 9 -17 -21 -46 -12 -46 15 0 11
-5 16 -10 13 -14 -8 -40 13 -40 32 0 8 13 28 29 44 16 16 26 29 21 29 -4 0
-20 -14 -35 -32 l-26 -31 -22 21 -21 22 25 27 24 28 -27 -24 -26 -23 -16 29
c-13 27 -13 32 2 48 16 18 16 18 -1 5 -16 -12 -20 -12 -28 1 -14 23 -10 57 9
68 9 6 12 11 5 11 -6 0 -15 -5 -19 -11 -4 -8 -9 -7 -15 2 -15 24 -10 46 14 58
l22 11 -22 -6 c-20 -5 -23 -1 -23 24 0 24 6 33 28 41 l27 11 -27 -5 c-25 -5
-28 -2 -28 20 0 14 7 28 16 32 12 4 12 8 3 13 -7 5 -9 18 -5 34 5 22 12 26 44
28 37 1 37 1 5 5 -37 5 -36 3 -23 37 7 19 17 26 37 27 17 1 21 3 11 6 -22 6
-23 21 -2 44 18 20 51 12 89 -19 20 -17 20 -17 1 5 -10 12 -27 25 -37 28 -11
4 -19 9 -19 13 0 11 85 62 103 62 9 0 28 -12 43 -27 l26 -28 -17 28 c-10 15
-22 27 -28 27 -18 0 6 18 28 21 11 2 31 -3 45 -10 21 -11 23 -11 13 0 -18 19
-16 29 6 29 11 0 31 -14 45 -31z m2630 -1 c-6 -10 -4 -10 7 0 16 15 93 17 84
1 -4 -6 1 -5 13 2 10 7 27 9 37 5 17 -6 17 -7 -1 -22 -18 -14 -17 -14 6 -2 24
12 39 12 69 2 11 -3 7 -13 -15 -37 l-29 -32 31 28 c16 15 35 27 40 27 6 0 32
-14 59 -31 47 -30 48 -32 30 -46 -19 -15 -19 -15 3 -8 16 5 30 1 43 -11 24
-21 24 -31 2 -37 -12 -3 -9 -5 8 -6 20 -1 30 -9 39 -31 7 -17 10 -33 7 -37 -3
-3 1 -12 9 -21 9 -8 14 -25 11 -39 -2 -13 0 -26 4 -29 5 -3 9 -16 9 -29 0 -19
-4 -23 -17 -19 -17 5 -17 5 0 -6 10 -6 17 -23 17 -40 0 -30 -13 -40 -25 -20
-3 6 -11 10 -18 10 -6 0 -1 -7 11 -16 27 -18 32 -70 6 -60 -14 5 -15 4 -5 -8
8 -9 8 -21 1 -40 -11 -31 -13 -31 -48 -10 l-27 17 28 -24 c26 -22 28 -27 16
-52 -15 -32 -20 -33 -44 -7 -10 11 -22 20 -27 20 -5 0 3 -11 18 -24 28 -23 28
-24 10 -51 l-18 -27 -30 33 c-23 26 -25 28 -9 5 12 -16 21 -34 21 -41 0 -16
-37 -49 -42 -38 -3 4 -3 3 -2 -4 2 -6 -8 -19 -22 -27 -20 -14 -24 -14 -24 -2
0 8 -4 17 -9 20 -5 4 -7 -3 -4 -14 3 -10 -2 -26 -10 -35 -19 -19 -27 -19 -27
-1 0 8 -4 18 -10 21 -6 4 -6 -4 1 -22 8 -22 7 -30 -7 -40 -9 -7 -21 -10 -25
-7 -5 3 -9 -1 -9 -8 0 -7 -9 -19 -19 -25 -17 -11 -21 -10 -26 6 -3 10 -17 29
-32 42 l-27 24 27 -33 c15 -19 27 -39 27 -47 0 -13 -28 -41 -33 -34 -2 2 -14
19 -26 37 -12 17 -28 32 -34 32 -7 0 -5 -5 4 -10 9 -5 22 -23 29 -40 11 -27
11 -34 -3 -47 -14 -14 -18 -12 -47 18 l-32 34 26 -33 c30 -38 30 -41 12 -64
-10 -14 -15 -15 -26 -5 -10 10 -12 8 -6 -7 9 -27 -12 -50 -32 -34 -13 11 -14
11 -8 0 4 -7 5 -25 1 -39 l-6 -26 -31 29 -32 29 27 -33 c15 -18 24 -39 20 -48
-6 -17 -5 -17 -54 14 -42 26 -104 142 -80 150 9 3 10 6 2 12 -16 9 -4 35 22
48 12 6 16 11 8 11 -19 1 16 41 36 41 7 0 12 5 10 11 -1 6 7 16 17 22 11 7 28
20 39 30 12 13 29 18 47 15 16 -2 27 -1 24 4 -3 4 -13 8 -22 8 -15 1 -15 2 1
11 11 6 33 9 49 7 27 -4 29 -3 14 7 -9 7 -16 17 -15 21 1 5 0 20 -4 34 -3 14
-11 67 -18 119 l-12 94 -14 -45 c-13 -45 -38 -77 -50 -64 -4 3 3 38 16 76 24
76 28 145 11 200 -12 43 -13 60 -1 60 15 0 75 -298 83 -411 3 -44 3 -45 39
-44 21 0 35 3 32 8 -2 4 -11 7 -19 7 -8 0 11 24 43 54 118 109 168 296 102
379 -18 24 -116 86 -104 66 4 -5 -7 -9 -24 -9 -20 0 -36 9 -51 28 -22 27 -22
27 -7 1 26 -44 -9 -55 -51 -16 l-25 22 17 -26 c16 -25 16 -27 -1 -33 -10 -4
-29 2 -47 15 l-31 22 23 -25 c25 -28 16 -46 -15 -29 -32 17 -58 55 -72 106
-25 91 -25 89 7 101 26 10 28 9 27 -10 -2 -14 -1 -15 2 -3 5 21 48 50 65 45 7
-3 24 1 38 9 32 17 64 17 54 1z m-2076 -230 c-2 -20 1 -34 5 -31 5 3 7 25 4
49 -4 40 -3 43 14 33 11 -5 19 -15 20 -22 0 -9 2 -9 6 1 8 20 22 14 44 -20 20
-32 21 -32 15 -5 -8 36 15 36 43 1 12 -15 21 -22 21 -15 0 15 12 14 35 -3 10
-7 22 -33 26 -57 l8 -44 -3 48 c-3 42 -1 47 13 41 9 -3 31 -6 50 -5 28 2 32
-1 26 -16 -10 -26 -23 -136 -17 -147 3 -5 0 -6 -6 -2 -6 3 -13 2 -17 -4 -9
-15 -38 -13 -29 3 6 10 4 10 -7 0 -7 -7 -22 -13 -32 -13 -17 0 -18 2 -6 18 12
15 11 15 -8 -1 -18 -16 -31 -17 -77 -12 -31 4 -53 11 -50 16 3 5 -2 6 -11 3
-8 -3 -27 -3 -41 0 -22 6 -24 9 -12 23 12 15 11 15 -10 2 -21 -13 -25 -12 -39
6 -12 16 -14 38 -10 105 3 47 8 94 13 104 7 18 7 18 21 0 8 -11 13 -35 11 -56z
m1636 35 c23 -119 17 -198 -15 -208 -11 -4 -28 -1 -37 7 -15 11 -15 11 -5 -3
7 -9 10 -19 6 -22 -12 -13 -57 -7 -77 11 -21 17 -21 17 -2 -5 19 -23 19 -23
-5 -23 -14 0 -31 6 -39 13 -12 10 -12 9 -1 -5 12 -16 10 -18 -15 -18 -15 0
-39 10 -53 23 l-26 22 19 -22 c18 -22 18 -23 1 -23 -10 0 -28 8 -39 18 -20 16
-20 16 -7 0 11 -15 11 -18 -2 -18 -9 0 -19 5 -22 10 -4 6 -10 8 -14 6 -4 -3
-9 18 -10 46 -1 28 -8 66 -16 85 -14 33 -14 33 14 33 25 0 28 -3 25 -27 -3
-24 -2 -24 6 5 13 39 51 47 44 10 -4 -22 -4 -22 5 -3 13 29 38 48 56 41 9 -3
19 3 25 14 6 11 20 20 31 20 16 0 19 -4 13 -22 -6 -19 -3 -18 20 7 17 19 29
26 32 18 4 -8 12 -5 25 8 11 11 24 17 29 14 6 -4 10 -1 10 4 0 23 19 10 24
-16z m-1950 -54 c-12 -13 -21 -16 -28 -9 -6 6 -2 18 15 36 20 21 25 23 27 9 2
-9 -4 -25 -14 -36z m-308 -81 c-13 -62 -26 -122 -29 -133 -3 -17 -6 -16 -16
10 -19 47 -25 119 -12 158 11 33 68 94 78 83 2 -2 -7 -55 -21 -118z m2552 51
c-12 -10 -25 -15 -28 -13 -2 3 2 9 9 13 9 6 10 11 2 15 -6 4 -11 17 -11 28 0
21 0 21 25 -2 l26 -24 -23 -17z m321 15 c31 -40 41 -89 31 -146 -17 -90 -25
-85 -48 30 -12 59 -24 116 -28 125 -10 27 22 21 45 -9z m-2549 -4 c0 -5 -5
-10 -11 -10 -5 0 -7 5 -4 10 3 6 8 10 11 10 2 0 4 -4 4 -10z m628 -228 c8 -15
16 -32 19 -39 6 -15 -59 -49 -112 -57 -33 -6 -44 -3 -58 12 -16 18 -16 20 -2
26 9 3 21 4 26 1 5 -4 6 1 3 9 -4 12 0 16 16 16 12 0 18 4 15 10 -12 19 25 22
53 6 l27 -17 -23 20 c-22 19 -14 40 10 25 7 -4 8 -3 4 4 -4 7 -4 12 1 12 4 0
14 -12 21 -28z m962 18 c0 -5 -5 -10 -11 -10 -5 0 -7 5 -4 10 3 6 8 10 11 10
2 0 4 -4 4 -10z m30 -16 c0 -4 -8 -13 -17 -21 -16 -13 -16 -13 5 -3 13 6 31 9
40 5 14 -5 12 -9 -10 -21 -38 -20 -35 -26 4 -10 29 12 35 12 60 -7 26 -19 27
-22 11 -39 -18 -20 -59 -17 -119 8 -52 22 -60 39 -30 69 23 23 56 34 56 19z
m-1145 -94 c3 -5 -1 -10 -9 -10 -8 0 -18 5 -21 10 -3 6 1 10 9 10 8 0 18 -4
21 -10z m1270 -10 c-3 -5 -10 -10 -16 -10 -5 0 -9 5 -9 10 0 6 7 10 16 10 8 0
12 -4 9 -10z m-2145 -255 c0 -15 -11 -9 -52 30 l-53 50 53 -55 c48 -51 64 -80
44 -80 -4 0 -31 24 -59 53 -45 46 -50 56 -46 84 l5 32 54 -47 c30 -27 54 -56
54 -67z m3054 24 c-48 -49 -64 -58 -64 -38 0 15 104 109 109 97 2 -5 -18 -32
-45 -59z m-2345 27 c37 -13 88 -27 114 -31 50 -8 56 -15 31 -36 -13 -10 -17
-10 -24 2 -7 10 -9 5 -7 -16 1 -20 -2 -29 -10 -27 -8 1 -13 -8 -13 -23 0 -14
-4 -25 -10 -25 -5 0 -10 -7 -10 -15 0 -8 -6 -15 -14 -15 -8 0 -17 -7 -20 -16
-4 -9 -13 -14 -22 -10 -10 4 -13 2 -8 -6 4 -6 -1 -17 -11 -25 -11 -7 -15 -13
-11 -13 5 0 -4 -16 -18 -35 -39 -51 -72 -132 -90 -218 -48 -231 17 -442 271
-884 l24 -42 -44 -19 c-25 -11 -48 -25 -51 -31 -4 -6 -12 -11 -18 -11 -6 0 -2
12 7 28 l18 27 -21 -19 c-27 -23 -31 -2 -5 26 15 17 15 18 1 13 -9 -4 -19 -13
-22 -21 -7 -19 -26 -9 -26 13 0 9 8 26 17 37 14 17 13 16 -9 -2 -35 -32 -48
-11 -18 31 l21 32 -26 -29 c-22 -24 -29 -26 -36 -15 -14 22 -11 44 11 67 12
12 17 22 11 22 -5 0 -18 -14 -28 -30 l-20 -31 -28 41 -28 41 22 32 22 32 -24
-27 c-18 -19 -28 -23 -36 -15 -16 16 -14 28 12 56 l22 26 -28 -25 c-24 -21
-30 -22 -37 -10 -16 24 -12 40 18 67 22 21 23 24 5 14 -12 -6 -26 -19 -31 -28
-11 -18 -32 -9 -32 13 0 8 11 26 25 39 13 14 20 25 15 25 -5 0 -18 -12 -30
-27 -17 -22 -23 -24 -30 -13 -11 17 3 44 32 64 12 9 18 16 12 16 -6 0 -21 -11
-34 -25 -20 -21 -25 -23 -32 -10 -11 18 4 48 34 69 12 9 18 16 12 16 -6 0 -23
-11 -37 -26 -24 -24 -26 -24 -32 -5 -8 27 9 57 43 75 15 9 22 15 15 16 -6 0
-25 -11 -41 -25 -46 -39 -54 -10 -9 32 42 38 33 45 -11 8 l-30 -25 -5 25 c-3
19 3 32 25 50 16 14 34 25 40 25 6 0 9 3 5 6 -3 4 -22 -3 -41 -15 -24 -15 -37
-18 -41 -10 -10 15 28 51 68 66 17 6 25 12 17 12 -9 1 -32 -7 -52 -18 -21 -10
-40 -16 -43 -13 -13 13 -2 34 28 53 29 19 24 20 -18 3 -10 -4 -15 0 -15 14 0
13 12 25 38 36 34 16 22 15 -29 0 -38 -12 -18 29 21 44 l35 12 -37 -5 c-44 -7
-53 14 -15 34 l22 12 -22 -5 c-19 -3 -23 0 -23 19 0 27 9 34 54 46 29 8 29 8
-6 4 -35 -3 -38 -2 -38 20 0 17 7 26 23 29 54 12 60 15 24 12 -35 -2 -38 0
-35 23 2 17 11 27 28 32 25 7 25 7 2 8 -19 1 -22 5 -17 24 4 12 14 27 22 33 8
7 10 14 4 15 -6 3 -4 17 4 37 11 24 21 32 42 33 24 2 24 2 6 6 -26 5 -29 20
-9 46 15 19 56 22 89 6 21 -10 21 -10 3 5 -11 9 -33 16 -48 16 l-29 0 18 30
c10 17 26 30 38 31 19 0 19 1 1 8 -17 6 -16 9 12 33 17 14 29 28 26 30 -2 3 5
13 16 23 17 15 26 17 55 8 19 -6 33 -7 30 -3 -3 5 -19 11 -36 15 -24 6 -28 9
-18 21 15 18 10 18 88 -10z m1627 -28 c-46 -24 -46 -31 0 -12 32 14 38 13 60
-1 31 -20 30 -33 -3 -38 -23 -3 -21 -4 9 -6 26 -1 41 -7 48 -20 14 -28 13 -29
-17 -34 -23 -3 -21 -4 9 -6 26 -1 41 -7 48 -20 14 -27 13 -31 -7 -31 -10 0
-25 -5 -33 -10 -10 -6 -3 -8 22 -3 l37 6 31 -66 c16 -36 30 -68 30 -71 0 -3
-17 -6 -37 -6 -21 0 -44 -4 -51 -9 -8 -5 7 -6 37 -3 48 4 51 3 61 -22 14 -37
15 -36 -32 -36 -24 0 -48 -4 -55 -8 -6 -4 13 -7 44 -7 53 0 57 -2 64 -27 7
-28 7 -28 -44 -30 l-52 -2 53 -3 c49 -4 52 -6 52 -31 0 -26 -2 -27 -52 -26
-29 1 -37 0 -18 -2 71 -9 80 -13 80 -40 0 -23 -3 -25 -32 -19 l-33 6 33 -15
c33 -16 48 -54 15 -41 -10 4 -36 9 -58 11 l-40 3 35 -7 c48 -11 82 -31 77 -45
-5 -12 -9 -13 -42 -2 -11 3 -8 -1 8 -10 15 -9 27 -24 27 -36 0 -19 -1 -19 -31
-4 -17 9 -38 14 -47 12 -13 -4 -12 -5 4 -6 12 0 32 -10 46 -20 23 -18 24 -23
14 -65 l-10 -44 -27 19 c-39 28 -46 23 -10 -7 29 -24 39 -52 25 -67 -4 -4 -20
5 -36 18 -16 14 -34 25 -40 25 -6 0 2 -10 18 -22 37 -28 44 -38 44 -62 0 -18
-3 -17 -28 7 -38 36 -48 35 -12 -2 20 -20 27 -35 23 -50 -7 -26 -6 -26 -39 4
-15 14 -31 25 -36 25 -5 0 4 -12 21 -26 30 -25 40 -57 22 -68 -4 -3 -19 6 -31
19 -13 14 -27 25 -31 25 -4 0 6 -13 22 -29 16 -16 29 -34 29 -40 0 -22 -22
-21 -40 1 l-20 23 17 -31 c10 -18 14 -38 9 -49 -6 -17 -9 -16 -31 10 -13 17
-27 27 -31 23 -4 -5 -2 -8 4 -8 6 0 18 -12 26 -28 13 -25 12 -29 -9 -54 -13
-15 -25 -33 -27 -40 -3 -9 -12 -5 -29 12 -13 15 -19 19 -13 10 21 -28 25 -57
9 -70 -8 -7 -15 -8 -15 -3 0 5 -7 18 -15 29 -13 16 -13 13 0 -15 14 -29 15
-35 3 -48 -12 -12 -16 -10 -28 11 -7 14 -20 28 -29 31 -10 4 -8 -2 7 -18 23
-24 29 -61 12 -72 -5 -3 -22 6 -36 22 l-25 28 23 -33 c22 -32 22 -34 5 -46 -9
-7 -17 -17 -17 -22 0 -5 -9 -17 -19 -26 -17 -15 -20 -15 -36 1 -17 15 -17 15
0 -11 9 -16 13 -28 7 -28 -6 0 -14 5 -18 11 -3 6 -26 20 -50 31 l-44 19 15 29
c9 17 29 54 47 82 116 197 203 382 232 495 26 98 31 235 12 322 -16 75 -64
192 -93 223 -8 9 -13 24 -9 33 3 9 2 13 -4 10 -19 -12 -31 5 -18 28 10 20 10
21 -6 8 -15 -13 -18 -12 -22 7 -4 12 -11 19 -20 15 -9 -3 -14 1 -14 12 0 9 -4
14 -9 10 -15 -9 -23 32 -11 57 11 22 10 22 -4 4 -15 -19 -16 -19 -23 0 -3 10
-15 25 -25 32 -30 22 -21 29 48 41 36 7 86 20 112 30 34 14 51 16 60 8 11 -8
6 -15 -22 -29z m715 -52 c-40 -40 -51 -46 -51 -31 0 27 94 122 98 99 3 -10
-17 -38 -47 -68z m-3058 -297 l5 -257 -52 -10 c-28 -6 -52 -9 -53 -8 -19 18
-31 418 -16 569 l6 69 52 -54 53 -53 5 -256z m1032 325 c42 -6 90 -46 82 -68
-4 -10 -11 -15 -16 -12 -5 3 -11 -4 -15 -17 -5 -18 -8 -20 -16 -7 -10 13 -11
13 -8 0 3 -20 -11 -60 -21 -60 -5 0 -11 -14 -15 -31 -4 -23 -10 -30 -21 -25
-10 3 -13 2 -10 -4 4 -6 3 -24 0 -41 l-7 -31 -31 29 -31 28 28 -34 c16 -20 25
-40 21 -50 -4 -9 -9 -37 -12 -63 -3 -26 -9 -46 -13 -43 -3 2 -4 -10 -2 -28 l5
-32 -23 20 -23 20 20 -30 c26 -36 42 -132 21 -119 -7 4 -5 -1 4 -12 9 -10 34
-68 56 -129 22 -60 65 -167 96 -237 69 -155 141 -355 166 -463 24 -101 40
-258 31 -309 l-6 -40 -39 88 c-22 48 -39 94 -39 102 0 8 -4 14 -8 14 -8 0 -39
52 -39 64 0 2 8 7 18 9 9 2 7 3 -6 2 -15 -2 -29 7 -42 25 -18 25 -18 28 -2 45
14 16 14 17 1 7 -14 -10 -18 -10 -23 4 -9 25 -8 29 22 59 23 23 23 26 5 16
-12 -6 -25 -16 -28 -21 -12 -19 -27 2 -20 27 3 14 2 22 -4 19 -5 -3 -14 9 -20
26 -10 28 -9 36 10 63 l22 30 -25 -23 -25 -22 -11 24 c-8 19 -7 29 6 47 15 23
15 23 -2 10 -15 -13 -19 -13 -27 0 -5 8 -8 24 -6 36 3 14 0 20 -9 16 -15 -6
-37 33 -28 50 4 6 14 21 23 32 9 12 4 9 -10 -6 l-27 -27 -12 23 c-14 27 -3 53
36 84 15 12 22 21 16 21 -5 0 -24 -16 -41 -35 l-30 -35 -16 22 c-20 29 -20 31
12 70 l27 33 -32 -29 c-17 -16 -33 -28 -36 -25 -23 27 -24 48 -4 75 l22 29
-27 -24 -26 -24 -12 27 c-11 24 -9 30 17 58 16 18 20 26 9 18 -11 -8 -25 -22
-32 -30 -10 -13 -14 -9 -28 24 -16 37 -16 39 7 65 19 21 19 23 2 8 -27 -23
-29 -22 -45 14 -12 30 -11 33 19 60 34 30 32 39 -2 14 -11 -8 -23 -15 -28 -15
-13 0 -9 65 5 80 10 12 9 12 -5 1 -16 -12 -18 -10 -18 23 0 32 4 39 33 52 29
14 23 14 -23 3 -18 -5 -26 37 -10 56 6 7 7 15 2 17 -17 6 -1 65 21 77 21 11
21 11 -1 5 -21 -5 -23 -3 -17 18 11 34 20 41 67 49 l43 8 -47 -3 c-52 -4 -59
4 -32 42 11 16 26 22 57 24 l42 1 -43 4 c-34 3 -42 8 -38 19 3 9 6 20 6 25 0
5 10 9 23 9 17 0 19 2 8 9 -25 16 2 61 36 62 27 1 27 1 5 8 l-24 6 21 19 c15
14 30 17 58 14 35 -5 36 -5 11 5 -63 24 -22 29 97 11z m1065 -4 c0 -5 -8 -10
-18 -10 -10 0 -27 -7 -38 -16 -18 -15 -18 -15 3 -5 34 17 78 13 97 -8 17 -19
17 -20 -11 -24 -27 -4 -27 -4 4 -6 32 -1 59 -29 51 -53 -3 -7 4 -20 14 -30 31
-31 23 -43 -29 -41 l-48 2 48 -8 c52 -8 70 -24 64 -57 -2 -11 2 -26 10 -32 7
-7 13 -22 13 -33 0 -16 -5 -19 -22 -14 -19 5 -18 3 5 -10 21 -12 27 -23 27
-51 0 -25 -4 -33 -12 -28 -10 6 -10 4 0 -7 6 -7 12 -26 12 -42 0 -24 -3 -28
-17 -22 -37 15 -57 15 -24 1 l33 -16 -7 -68 c-8 -79 -15 -90 -40 -62 -10 11
-22 20 -27 20 -4 0 5 -12 22 -27 29 -26 30 -30 19 -60 -13 -38 -15 -39 -43
-15 -19 16 -18 15 1 -11 21 -27 21 -30 6 -63 l-17 -34 -30 27 c-29 26 -29 26
-8 2 23 -26 27 -45 16 -74 -6 -14 -10 -13 -32 7 l-25 23 18 -28 c15 -23 16
-32 6 -54 l-12 -26 -31 29 -32 29 27 -33 c27 -33 27 -34 10 -63 l-17 -28 -29
32 -28 32 22 -32 c24 -35 20 -89 -6 -79 -9 3 -12 0 -9 -9 3 -7 0 -23 -6 -35
l-12 -22 -31 28 -31 29 27 -33 c31 -38 31 -40 12 -66 -14 -18 -15 -18 -35 5
l-21 24 20 -34 c15 -27 17 -38 9 -57 -6 -13 -15 -21 -21 -17 -5 3 -7 -3 -4
-13 4 -11 0 -29 -6 -42 l-13 -23 -24 26 c-13 14 -28 25 -34 25 -6 0 0 -7 12
-16 30 -21 44 -51 37 -75 -7 -20 -7 -20 -33 3 l-25 23 22 -31 c27 -38 20 -69
-12 -53 -20 9 -20 9 -4 -4 23 -19 22 -29 -8 -61 -13 -14 -25 -29 -25 -31 0 -3
0 -9 0 -15 0 -5 -10 -10 -22 -10 -16 0 -19 -3 -10 -8 12 -8 -2 -45 -73 -187
l-25 -50 4 115 c9 204 63 385 217 728 38 84 83 189 99 234 16 45 38 90 47 101
10 11 12 17 6 13 -16 -9 -18 39 -3 49 5 3 7 12 3 20 -3 9 3 27 13 43 15 24 15
25 1 13 -15 -12 -17 -11 -17 11 0 13 6 30 13 37 10 10 9 11 -5 6 -31 -12 -24
49 8 74 15 12 22 21 17 21 -6 0 -16 -7 -23 -15 -20 -24 -30 -18 -30 17 0 19 9
42 23 57 l22 26 -27 -23 -26 -24 -12 21 c-12 23 -9 32 24 71 19 23 18 22 -9
-2 l-31 -28 -27 56 c-22 44 -25 59 -17 77 10 20 10 20 -3 5 -19 -23 -27 -23
-27 2 0 12 -5 17 -14 14 -27 -10 -25 13 4 41 21 21 43 29 87 35 86 11 103 11
103 0z m1022 -92 c4 -244 -9 -508 -25 -524 -2 -3 -28 1 -57 7 -49 10 -52 12
-46 38 3 14 9 130 12 256 l6 230 46 48 c26 26 50 47 54 47 4 0 9 -46 10 -102z
m-2899 -250 c4 -120 3 -218 -2 -218 -11 0 -21 153 -21 319 0 213 17 141 23
-101z m2583 55 c-9 -211 -17 -293 -29 -293 -6 0 -8 37 -4 103 4 56 10 155 13
220 4 68 11 117 17 117 7 0 8 -50 3 -147z m-2400 10 c-7 -27 -31 -53 -48 -53
-18 0 -6 40 18 59 35 27 37 26 30 -6z m2229 -17 c28 -28 24 -57 -6 -49 -10 3
-19 6 -19 7 0 1 -4 16 -9 34 -12 39 0 42 34 8z m-1162 -69 c-7 -11 -23 12 -23
33 1 12 4 11 15 -4 8 -10 12 -23 8 -29z m68 6 c-10 -17 -10 -16 -11 3 0 23 13
41 18 25 2 -6 -1 -18 -7 -28z m-1159 -8 c-2 -14 -11 -25 -19 -25 -10 0 -13 6
-9 16 3 9 6 20 6 25 0 5 6 9 14 9 9 0 12 -8 8 -25z m2266 -18 c4 -29 -12 -37
-22 -11 -10 26 -7 46 7 42 6 -3 13 -17 15 -31z m-1198 -20 c0 -6 -9 -2 -20 8
-11 10 -20 23 -20 28 0 6 9 2 20 -8 11 -10 20 -23 20 -28z m126 5 c-23 -23
-33 -6 -10 19 12 13 20 16 22 9 3 -7 -3 -19 -12 -28z m-1206 -27 c0 -18 -5
-25 -20 -25 -14 0 -18 5 -13 18 6 14 22 31 31 32 1 0 2 -11 2 -25z m2290 -14
c13 -26 13 -31 -4 -31 -13 0 -26 20 -26 41 0 16 19 10 30 -10z m-1005 -41 c14
-22 25 -47 25 -56 0 -19 -170 -274 -182 -274 -5 0 -47 59 -94 131 -91 140 -92
145 -54 207 l20 32 130 0 130 0 25 -40z m-1295 -16 c0 -22 -3 -24 -27 -18 -38
9 -38 9 -13 34 24 24 40 19 40 -16z m2330 -4 c9 -16 8 -21 -5 -25 -8 -3 -22
-7 -30 -10 -11 -3 -15 4 -15 25 0 23 5 30 20 30 10 0 24 -9 30 -20z m-2346
-26 c13 -5 16 -22 16 -83 -1 -122 -31 -144 -229 -165 -202 -21 -257 -64 -248
-193 4 -52 15 -82 63 -175 134 -260 136 -264 140 -322 3 -41 0 -55 -8 -50 -6
4 -8 3 -5 -3 19 -31 -63 -151 -96 -140 -16 5 -22 47 -7 47 6 0 8 5 5 10 -3 6
-1 10 5 10 6 0 8 5 5 10 -3 6 -1 10 5 10 6 0 8 5 5 10 -3 6 -1 10 5 10 6 0 8
5 5 10 -3 6 -2 10 3 10 4 0 8 31 8 69 -1 38 -4 67 -7 65 -14 -8 -19 29 -7 45
11 14 11 14 -3 4 -13 -11 -18 -9 -29 12 -11 20 -11 27 1 42 13 16 12 17 -4 4
-15 -12 -20 -12 -32 5 -26 33 -36 54 -30 64 3 6 -1 7 -9 4 -9 -3 -16 -1 -16 5
0 5 -14 24 -30 41 -34 35 -37 55 -13 84 14 17 12 16 -9 -2 l-26 -24 -11 21
c-9 16 -9 27 0 44 11 19 10 20 -3 10 -8 -7 -18 -10 -21 -6 -14 13 -6 42 15 57
12 9 17 16 11 16 -6 0 -16 -7 -23 -15 -7 -8 -16 -12 -21 -9 -16 9 -10 53 9 64
15 9 14 10 -5 5 -20 -5 -23 -2 -23 20 0 17 7 29 23 35 l22 9 -24 0 c-16 1 -21
5 -18 15 3 8 11 34 17 56 8 28 18 44 32 48 12 3 16 7 8 12 -13 8 46 80 66 80
7 0 27 -12 46 -26 l33 -26 -34 32 c-24 23 -30 35 -22 43 16 16 57 -7 76 -43
17 -33 28 -41 18 -12 -3 9 -17 29 -30 44 -24 25 -24 26 -5 33 27 8 58 -12 77
-50 8 -16 15 -23 15 -14 0 9 -9 28 -21 43 l-20 26 21 0 c34 0 60 -19 75 -53 8
-18 14 -25 15 -16 0 8 -7 24 -15 35 -8 10 -15 22 -15 27 0 15 38 6 66 -15 16
-12 23 -15 17 -8 -24 26 -15 40 28 40 31 0 47 -6 70 -29 16 -16 29 -26 29 -21
0 5 -14 22 -30 39 l-31 30 25 7 c17 4 37 -1 62 -17 21 -13 34 -17 30 -11 -4 7
-21 19 -37 28 -25 12 -28 18 -18 30 12 15 37 18 63 8z m2382 -26 c4 -6 2 -14
-5 -16 -7 -2 -24 -15 -39 -29 l-27 -25 29 21 c29 22 52 26 81 15 14 -6 13 -8
-4 -21 -12 -8 -26 -24 -32 -36 -10 -18 -8 -18 21 6 25 22 41 27 69 25 22 -2
35 -8 34 -15 -3 -15 13 -17 22 -3 3 6 17 10 31 10 24 0 24 -1 9 -30 -8 -16
-15 -35 -15 -42 1 -7 7 1 15 19 15 34 41 53 75 53 l21 0 -20 -26 c-12 -15 -21
-34 -20 -43 0 -12 2 -11 9 4 15 38 55 66 79 57 l22 -8 -26 -24 c-14 -13 -25
-27 -25 -31 0 -4 13 6 29 22 32 32 38 34 61 19 12 -8 9 -15 -20 -40 -32 -29
-32 -29 -4 -10 33 23 75 24 82 3 2 -7 -3 -13 -12 -13 -8 0 -17 -3 -19 -8 -3
-4 9 -7 25 -7 26 0 35 -7 54 -40 30 -52 30 -55 -8 -56 l-33 -2 35 -6 c31 -5
35 -10 36 -36 0 -17 3 -36 7 -42 4 -6 3 -21 -1 -34 -6 -15 -11 -18 -16 -11 -4
7 -12 12 -19 12 -6 0 -1 -7 11 -16 24 -16 27 -31 13 -53 -8 -13 -12 -13 -28
-1 -17 14 -17 14 0 -6 10 -12 15 -28 11 -38 -7 -20 -13 -20 -38 -1 -31 23 -42
18 -12 -6 29 -23 33 -41 13 -58 -11 -8 -18 -6 -32 9 -10 11 -22 20 -26 20 -4
0 3 -11 16 -25 30 -29 31 -40 7 -57 -10 -7 -21 -21 -25 -31 -4 -10 -11 -15
-17 -12 -5 3 -10 -1 -10 -10 0 -11 -5 -15 -14 -12 -10 4 -13 1 -9 -9 3 -8 0
-21 -7 -29 -11 -13 -14 -13 -27 2 -13 16 -13 16 -3 -4 8 -18 5 -29 -16 -60
-14 -21 -30 -37 -36 -35 -5 1 -7 -2 -4 -7 7 -11 -4 -42 -13 -37 -3 2 -6 -25
-6 -60 0 -36 -4 -64 -10 -64 -6 0 -6 -3 1 -8 5 -4 22 -29 37 -55 26 -48 27
-77 2 -77 -21 0 -75 59 -75 81 0 11 -4 18 -10 14 -5 -3 -8 9 -6 29 1 19 -2 32
-7 29 -5 -3 -7 18 -3 52 4 41 18 79 48 134 115 210 158 302 157 339 l-1 37 -8
-41 c-9 -45 -38 -119 -44 -113 -2 2 6 48 17 103 14 68 23 93 28 80 6 -16 8
-15 8 7 1 32 -28 70 -74 99 -25 16 -68 25 -157 36 -143 16 -173 25 -211 59
-25 24 -27 32 -27 104 0 43 3 81 7 84 11 12 71 8 79 -5z m-1386 -136 c0 -13
-23 -32 -39 -32 -11 0 -10 4 4 20 19 21 35 26 35 12z m357 -15 c7 -5 10 -14 7
-19 -6 -10 -44 19 -44 34 0 9 14 4 37 -15z m-312 -77 c-9 -16 -20 -30 -26 -30
-5 0 -3 14 6 30 9 17 20 30 26 30 5 0 3 -13 -6 -30z m248 1 c22 -37 9 -49 -15
-14 -19 30 -22 43 -10 43 4 0 15 -13 25 -29z m-1353 -76 c20 -112 66 -281 109
-405 39 -113 78 -210 85 -210 2 0 0 17 -5 38 -17 74 -9 142 17 142 18 0 23
-25 27 -150 4 -122 18 -161 106 -305 l56 -90 7 83 c20 239 114 362 278 362 60
0 119 -29 159 -76 46 -56 130 -235 191 -409 51 -146 81 -216 122 -282 19 -32
19 -33 1 -33 -11 0 -34 15 -52 34 -26 27 -31 39 -26 57 7 23 7 24 -9 4 -15
-19 -15 -19 -16 10 -1 17 -4 24 -7 17 -2 -6 -9 -10 -14 -6 -13 8 -11 58 3 72
9 9 9 12 1 12 -7 0 -15 -9 -18 -20 -8 -27 -25 -16 -25 16 0 14 -4 22 -10 19
-5 -3 -13 7 -16 22 -4 15 -13 34 -21 41 -14 14 -18 72 -5 88 4 5 0 2 -9 -8
-15 -16 -17 -15 -27 7 -6 14 -9 33 -6 42 5 14 4 15 -4 4 -8 -11 -12 -10 -21 7
-6 11 -11 30 -11 41 0 12 -4 21 -10 21 -5 0 -14 9 -19 19 -8 15 -6 25 11 47
l22 29 -25 -22 c-42 -38 -66 5 -33 57 12 20 10 19 -9 -4 -27 -31 -47 -28 -48
7 0 12 -3 16 -6 9 -2 -6 -10 -9 -15 -5 -6 3 -25 9 -42 12 -21 5 -32 14 -37 31
l-7 25 -1 -26 c-1 -30 -22 -43 -40 -26 -9 9 -11 8 -7 -3 3 -8 1 -22 -4 -30 -8
-13 -12 -13 -32 -1 -22 13 -22 13 -6 -5 11 -13 14 -24 8 -34 -8 -12 -15 -13
-42 -3 -30 11 -31 11 -14 -2 11 -8 26 -15 33 -15 16 0 16 -5 2 -32 -9 -16 -17
-19 -42 -14 -23 4 -28 3 -17 -4 8 -5 23 -10 33 -10 13 0 17 -6 15 -22 -2 -17
-12 -25 -38 -29 l-35 -6 38 -2 c31 -1 37 -5 37 -23 0 -12 -8 -31 -17 -42 -15
-17 -15 -18 -2 -8 14 10 18 10 23 -4 11 -30 6 -51 -16 -63 -22 -11 -6 -8 26 5
24 9 31 -34 9 -59 l-18 -22 23 19 c21 18 24 19 39 3 16 -16 15 -19 -6 -49
l-22 -33 26 28 c30 33 63 31 45 -2 -15 -29 -12 -38 6 -15 15 18 15 17 10 -15
-3 -18 -6 -50 -6 -70 0 -57 -10 -65 -56 -46 -77 32 -141 114 -167 216 -9 35
-37 89 -76 148 -158 234 -281 532 -356 858 -25 111 -33 186 -17 168 5 -6 14
-41 22 -80z m-240 55 c0 -5 -5 -10 -11 -10 -5 0 -7 5 -4 10 3 6 8 10 11 10 2
0 4 -4 4 -10z m2705 -41 c-7 -50 -7 -51 16 -44 13 4 34 19 46 33 27 33 36 26
23 -18 -5 -19 -8 -35 -7 -36 2 -2 20 -9 42 -16 21 -7 40 -19 43 -25 2 -9 -6
-9 -32 2 -49 21 -49 20 -21 -25 27 -43 29 -50 17 -50 -5 0 -19 19 -32 42 -13
23 -25 37 -28 30 -2 -7 -8 -12 -13 -12 -6 0 -7 6 -3 13 4 6 -7 -1 -24 -17 -18
-16 -35 -26 -39 -23 -3 4 9 21 27 37 19 17 29 30 24 30 -5 0 -19 3 -30 6 -19
5 -23 -1 -39 -66 -10 -39 -15 -74 -12 -77 10 -9 57 26 69 52 11 24 31 26 23 2
-18 -61 -17 -64 31 -76 24 -6 47 -17 50 -24 2 -7 -7 -35 -22 -61 l-27 -47 -37
39 c-29 30 -37 45 -33 64 4 21 0 26 -20 30 -22 4 -26 1 -31 -30 -4 -29 -1 -38
15 -50 17 -12 20 -22 16 -54 -4 -31 -2 -41 11 -45 51 -18 84 -34 80 -38 -3 -3
-24 2 -48 10 -50 18 -60 13 -60 -24 0 -23 7 -31 40 -44 22 -8 40 -20 40 -26 0
-5 -23 0 -51 11 l-51 22 5 42 c4 41 3 43 -24 49 -33 7 -39 25 -9 25 11 0 30
10 41 21 l22 22 -27 14 c-14 7 -26 21 -27 31 0 9 -17 -30 -38 -88 -82 -225
-175 -419 -258 -537 -15 -22 -15 -23 18 -23 20 0 42 8 56 22 25 23 30 13 11
-27 -15 -33 -10 -37 36 -24 48 13 61 3 16 -12 l-33 -12 24 -18 c38 -29 16 -31
-26 -2 -37 25 -39 25 -52 8 -7 -11 -13 -22 -13 -27 0 -4 -5 -8 -11 -8 -7 0 -8
7 -4 18 18 43 17 49 -13 60 -29 10 -32 9 -70 -46 -21 -31 -44 -79 -51 -107
-15 -62 -48 -120 -94 -163 -35 -34 -106 -66 -119 -54 -3 4 -10 41 -14 82 l-7
75 23 -20 23 -20 -18 28 c-10 15 -16 29 -14 30 2 1 19 13 37 25 31 22 35 22
51 8 26 -23 35 -20 11 4 -16 16 -18 25 -10 40 12 22 25 26 35 10 3 -5 11 -10
17 -10 5 0 0 8 -12 18 -18 15 -22 25 -16 46 6 24 9 26 24 15 14 -11 15 -11 5
1 -7 8 -13 28 -13 45 0 28 3 31 28 30 15 -1 18 0 7 2 -20 4 -45 29 -45 45 0 4
10 9 23 9 l22 2 -22 4 c-23 4 -43 45 -26 50 6 2 19 11 29 19 18 14 18 14 -4 4
-13 -6 -30 -9 -38 -6 -19 7 -18 32 1 40 8 3 15 10 15 16 0 6 -7 4 -16 -5 -23
-22 -39 -13 -37 21 0 16 -1 23 -4 17 -2 -7 -16 -13 -30 -13 -20 0 -23 4 -19
23 l6 22 -11 -22 c-14 -27 -49 -31 -50 -5 0 13 -2 13 -9 -4 -9 -23 -30 -41
-30 -27 0 5 -7 18 -15 29 -14 18 -14 17 -3 -9 10 -23 9 -30 -6 -45 -15 -15
-18 -15 -27 -2 -9 13 -10 12 -5 -3 3 -10 0 -26 -6 -37 -12 -19 -13 -19 -43 8
-28 26 -29 26 -7 1 24 -28 28 -49 10 -67 -9 -9 -15 -7 -25 6 -12 15 -13 14 -3
-6 9 -18 9 -31 0 -53 -7 -16 -15 -29 -19 -29 -4 0 -12 -14 -19 -31 l-11 -32
-21 24 -21 24 16 -27 c17 -28 14 -58 -9 -80 -16 -17 -29 -78 -16 -78 6 0 10
-9 10 -20 0 -13 -5 -18 -15 -14 -8 4 -12 10 -10 15 3 5 -1 22 -10 39 -18 36
-29 41 -14 6 7 -14 8 -37 4 -53 -7 -27 -8 -27 -15 -7 -5 12 -15 25 -22 29 -10
6 -11 5 0 -6 14 -15 16 -65 3 -73 -5 -4 -12 0 -14 6 -3 7 -6 3 -6 -9 -1 -31
-42 -78 -53 -61 -5 9 -8 7 -8 -8 0 -25 -18 -44 -42 -44 -24 0 -23 1 16 62 18
29 64 134 101 233 113 301 192 441 269 476 82 37 198 20 259 -39 62 -58 107
-194 107 -323 l0 -74 61 93 c92 141 111 195 118 334 3 64 10 120 14 125 14 13
37 -28 37 -66 0 -20 -5 -54 -10 -76 -5 -22 -8 -41 -6 -42 5 -5 100 240 130
332 29 90 86 320 86 347 0 10 5 18 11 18 7 0 9 -16 4 -51z m-2709 16 c19 -14
19 -14 0 -15 -19 0 -19 0 -1 -13 10 -8 15 -19 11 -25 -4 -7 -2 -12 3 -12 6 0
11 -7 11 -15 0 -12 -4 -13 -19 -5 -36 19 -36 10 -1 -12 28 -18 31 -23 17 -26
-16 -3 -16 -5 -4 -15 8 -7 29 -68 47 -137 139 -542 393 -980 722 -1246 l37
-30 -26 -77 c-24 -69 -25 -79 -12 -93 14 -13 19 -13 50 0 19 9 28 15 20 16
-20 0 7 30 28 30 11 0 13 3 4 8 -10 6 -9 13 3 30 15 21 42 32 29 12 -3 -5 0
-10 8 -10 24 0 92 -37 77 -42 -8 -3 -7 -4 3 -2 25 3 145 -54 157 -76 6 -11 5
-21 -3 -30 -8 -9 -8 -11 0 -6 12 7 37 -50 27 -65 -3 -5 -1 -9 4 -9 17 0 24
-51 10 -68 -11 -15 -11 -15 4 -4 21 17 33 0 18 -28 -12 -23 -11 -23 -45 -10
-17 6 -24 14 -19 22 5 9 2 9 -9 -1 -15 -12 -21 -9 -18 11 0 4 -5 5 -12 2 -18
-6 -70 14 -63 24 3 5 -5 8 -17 8 -12 -1 -21 4 -20 11 2 7 -4 10 -12 7 -41 -16
-269 147 -420 300 -170 173 -285 336 -404 574 -101 201 -123 265 -125 358 -1
77 -3 85 -57 190 -56 109 -87 212 -103 339 -2 17 -7 46 -11 66 -9 48 4 55 56
29 22 -12 43 -20 45 -17 2 2 -14 12 -36 22 -22 10 -40 22 -40 28 0 5 7 6 15 3
46 -19 50 -19 30 -3 -20 16 -20 16 1 17 11 0 29 -7 40 -15z m2970 -5 c9 0 12
-5 8 -12 -5 -8 -2 -9 9 -5 30 11 27 -11 -3 -23 -17 -7 -29 -15 -26 -17 2 -2
18 3 35 11 16 9 32 16 34 16 10 0 5 -72 -9 -145 -30 -156 -47 -211 -86 -277
-57 -97 -88 -191 -81 -248 5 -40 -1 -62 -42 -156 -238 -551 -615 -946 -1053
-1104 -57 -21 -65 -22 -79 -7 -13 13 -14 19 -2 46 11 24 16 28 29 18 12 -9 13
-9 2 3 -6 8 -12 21 -12 29 0 11 5 10 23 -5 22 -19 22 -19 5 2 -28 33 -20 59
10 34 7 -5 6 -3 -1 6 -12 13 -12 22 0 57 15 44 23 49 175 106 27 10 45 21 41
24 -3 4 6 7 21 7 16 0 25 4 21 10 -3 5 -1 10 4 10 6 0 11 -4 11 -9 0 -4 11
-25 25 -45 13 -20 21 -36 17 -36 -4 0 6 -7 22 -15 15 -8 32 -15 37 -15 19 0
19 50 -1 109 -11 35 -20 66 -18 70 2 4 35 35 73 68 147 126 254 249 365 419
134 205 260 495 336 774 15 58 31 106 35 108 4 2 5 11 2 20 -3 12 5 21 24 29
18 8 20 10 6 7 -32 -7 -29 12 5 31 l27 15 -30 -6 -30 -5 25 22 c16 15 19 20 8
16 -28 -10 -21 11 10 28 22 13 23 15 5 10 -14 -4 -23 -2 -23 4 0 6 6 11 13 11
8 0 7 4 -3 11 -12 9 -12 10 3 5 10 -3 25 -6 33 -6z m-1552 -42 c-16 -50 -37
-92 -41 -81 -6 17 27 103 39 103 5 0 6 -10 2 -22z m110 -10 c23 -55 28 -78 18
-78 -9 0 -42 81 -42 102 0 18 12 6 24 -24z m-1642 -116 c21 -102 19 -123 -6
-61 -19 46 -35 170 -20 156 4 -4 16 -47 26 -95z m438 -292 l20 -39 -25 -17
c-14 -9 -25 -21 -25 -28 0 -6 -5 -18 -10 -26 -8 -13 -11 -12 -23 4 -13 18 -18
18 -46 6 -17 -7 -34 -10 -37 -7 -9 9 -22 75 -16 81 13 13 60 4 77 -14 21 -23
34 -25 59 -7 29 22 12 57 -27 57 l-32 1 30 14 c17 7 31 14 32 14 2 1 12 -17
23 -39z m2309 -112 c-12 -42 -11 -48 2 -48 15 0 81 -41 75 -47 -2 -2 -22 5
-45 16 -49 25 -51 26 -51 4 0 -21 -17 -50 -24 -42 -3 3 -2 20 3 37 5 18 6 32
1 32 -5 0 -15 2 -22 5 -9 4 -20 -8 -31 -31 -17 -36 -17 -37 3 -51 11 -8 20
-19 20 -26 0 -8 -3 -8 -12 1 -7 7 -20 12 -30 12 -24 0 -23 20 3 74 15 29 33
49 55 60 19 8 34 20 34 26 0 5 6 10 14 10 12 0 13 -7 5 -32z m-2279 2 c0 -5
-13 -16 -30 -25 -34 -18 -41 -40 -9 -32 17 5 18 3 8 -9 -19 -24 0 -30 33 -11
39 22 48 14 20 -16 -12 -13 -22 -31 -22 -40 0 -26 -17 -29 -33 -6 -12 17 -19
19 -35 10 -12 -6 -29 -11 -39 -10 -10 0 -1 7 19 16 39 16 43 38 5 28 -20 -6
-21 -5 -4 8 17 14 23 37 10 37 -5 0 -17 -7 -27 -15 -22 -17 -40 -20 -31 -5 5
7 124 79 133 80 1 0 2 -4 2 -10z m95 -181 l26 -40 -26 -31 c-16 -18 -24 -39
-22 -50 7 -24 -15 -23 -31 2 l-13 21 -28 -21 -29 -20 -25 45 c-25 43 -25 45
-7 55 25 14 37 13 22 -2 -7 -7 -12 -18 -12 -26 0 -10 12 -7 44 12 50 29 64 33
46 11 -22 -26 -1 -37 30 -15 28 20 28 21 13 49 -12 20 -23 27 -37 24 -21 -4
-21 -4 -2 11 11 9 21 16 23 16 1 0 14 -18 28 -41z m491 -14 c9 -14 26 -58 37
-97 18 -62 21 -100 22 -258 0 -162 -3 -195 -23 -270 -27 -99 -54 -164 -99
-242 -55 -95 -86 -115 -80 -51 3 29 9 39 28 44 16 5 18 7 7 8 -26 1 -22 21 5
22 16 1 18 2 5 6 -28 7 -21 23 10 24 l27 1 -25 8 c-25 7 -24 9 20 23 10 4 7 6
-7 6 -21 1 -21 3 -7 29 7 15 14 35 14 45 0 9 8 17 18 18 10 0 12 3 5 6 -19 7
-16 23 5 23 11 0 13 3 5 8 -18 12 -5 92 16 92 14 0 14 2 1 10 -13 9 -13 11 0
20 9 6 10 10 3 10 -19 0 -13 100 6 101 13 1 12 2 -1 6 -10 2 -18 8 -18 13 0 5
8 14 18 19 16 10 16 10 0 11 -27 0 -22 30 5 31 l22 2 -22 4 c-27 5 -29 18 -5
33 16 11 16 11 0 6 -21 -6 -26 29 -5 37 7 3 4 6 -7 6 -15 1 -16 4 -7 15 9 11
9 15 -1 19 -11 4 -10 7 0 15 11 7 11 10 -2 15 -22 9 -20 22 7 35 l22 11 -25
-2 c-19 -2 -25 3 -25 18 0 11 -3 22 -6 25 -3 3 -11 19 -16 36 -8 23 -8 35 0
44 9 10 8 12 -5 7 -10 -4 -18 -2 -18 3 0 13 31 29 57 30 13 0 29 -10 39 -25z
m1115 4 c11 -5 17 -14 14 -20 -4 -5 -11 -7 -16 -4 -5 3 -6 -1 -3 -9 3 -9 3
-23 0 -32 -5 -14 -9 -14 -24 -3 -15 12 -15 11 1 -8 20 -23 10 -37 -20 -27 -17
5 -17 5 0 -6 9 -6 17 -20 17 -31 0 -16 -5 -19 -22 -14 -20 5 -21 4 -5 -5 17
-11 24 -40 8 -40 -4 0 -7 -13 -5 -30 2 -16 0 -30 -5 -30 -5 0 -7 -9 -4 -20 4
-15 0 -20 -13 -21 -17 -1 -17 -2 -1 -6 19 -5 23 -33 5 -34 -10 0 -10 -2 0 -6
18 -7 15 -33 -5 -34 -16 -1 -16 -2 -1 -6 22 -6 21 -83 -2 -83 -11 -1 -10 -4 5
-12 19 -11 19 -11 0 -19 -17 -7 -18 -8 -2 -8 9 -1 17 -5 17 -11 0 -5 -8 -11
-17 -11 -17 -1 -17 -2 0 -6 20 -5 22 -19 5 -26 -8 -3 -6 -6 5 -6 19 -1 24 -21
5 -21 -9 0 -8 -4 2 -10 12 -8 13 -12 2 -19 -11 -6 -10 -10 3 -15 10 -3 15 -12
11 -21 -3 -8 -1 -15 4 -15 18 0 10 -20 -7 -21 -13 0 -11 -3 7 -11 23 -9 24
-11 6 -17 -18 -7 -18 -8 5 -15 22 -7 23 -8 5 -15 -19 -7 -19 -8 3 -14 16 -4
22 -11 18 -21 -4 -9 -2 -16 3 -16 17 0 11 -18 -7 -23 -14 -4 -14 -5 3 -6 19
-1 38 -30 35 -53 -1 -5 4 -8 9 -8 18 0 11 -20 -7 -21 -14 0 -13 -2 5 -9 24
-10 27 -18 12 -40 -9 -13 -15 -9 -40 19 -63 73 -128 241 -151 391 -19 124 -7
337 25 445 15 49 32 95 38 102 13 16 52 17 79 2z m489 -25 c-9 -23 -7 -26 35
-45 25 -11 45 -23 45 -27 0 -11 -60 -92 -69 -92 -4 0 -37 16 -75 36 -48 26
-66 40 -62 51 3 8 6 20 6 27 0 26 37 56 68 56 17 0 34 5 37 10 13 21 24 9 15
-16z m-2030 -88 c0 -8 -13 -28 -30 -46 -36 -39 -39 -58 -5 -36 35 23 42 20 16
-8 -32 -34 -9 -42 29 -10 34 29 54 26 27 -4 -10 -11 -17 -35 -17 -57 l0 -38
-24 22 c-23 21 -25 22 -55 7 l-30 -16 -21 42 c-25 52 -25 55 1 63 28 9 89 64
89 81 0 8 5 14 10 14 6 0 10 -6 10 -14z m1880 -58 c0 -19 -2 -20 -10 -8 -13
19 -13 30 0 30 6 0 10 -10 10 -22z m-1266 -53 c3 -8 0 -15 -7 -15 -7 0 -4 -5
6 -11 10 -6 29 -35 42 -65 l24 -54 -26 -45 c-28 -51 -106 -135 -142 -155 -24
-12 -24 -12 -18 35 4 26 7 65 7 87 0 22 3 37 8 34 4 -2 7 13 7 34 0 52 10 58
43 29 l27 -24 -25 29 c-17 20 -21 30 -12 33 6 3 9 9 6 15 -3 5 4 12 16 15 15
4 18 8 10 13 -8 5 -9 13 -4 21 5 8 9 17 10 22 3 15 4 17 13 17 5 0 11 -7 15
-15z m676 -15 c-13 -9 -13 -10 0 -10 18 0 55 -73 46 -89 -4 -7 -1 -9 8 -5 19
7 20 1 5 -29 -9 -20 -9 -21 4 -4 19 23 32 5 17 -22 -13 -25 -13 -34 0 -26 6 4
10 -13 10 -43 0 -27 3 -64 6 -81 4 -21 3 -31 -5 -31 -21 0 -120 101 -150 154
-28 48 -29 52 -15 86 8 19 21 44 28 55 7 11 14 25 16 30 1 6 6 18 12 29 7 14
13 15 21 7 9 -9 8 -14 -3 -21z m545 -19 c-3 -6 -14 -11 -23 -11 -13 0 -13 2 4
14 21 15 30 14 19 -3z m90 -68 c4 -19 3 -33 -3 -33 -11 0 -33 76 -24 85 8 8
18 -13 27 -52z m-1801 -8 c-12 -18 -15 -36 -10 -65 7 -47 2 -49 -36 -13 -27
26 -28 26 -48 8 l-21 -19 22 -20 c15 -15 23 -17 26 -8 8 22 20 13 15 -13 -2
-14 -8 -25 -12 -25 -13 0 -100 99 -100 114 0 7 7 17 16 20 12 5 15 2 10 -10
-4 -9 -1 -23 5 -30 9 -11 15 -10 35 3 18 11 22 19 15 26 -6 6 -11 18 -11 26 0
11 4 11 19 -3 18 -16 20 -16 47 8 37 33 49 33 28 1z m952 -32 c-11 -21 -15
-23 -16 -10 0 24 22 65 27 50 2 -6 -3 -24 -11 -40z m-348 -90 c31 -53 32 -59
22 -105 -14 -68 -13 -205 2 -214 6 -4 40 -7 75 -6 62 0 78 -8 47 -26 -14 -8
-11 -11 17 -22 67 -25 2 -21 -71 4 -41 14 -76 24 -78 21 -11 -11 22 -159 59
-265 48 -135 73 -220 66 -227 -13 -12 -47 10 -48 30 0 12 -3 16 -6 9 -7 -18
-23 -4 -23 21 0 17 -3 19 -9 8 -14 -22 -23 21 -11 53 6 18 6 25 0 21 -6 -3
-10 -13 -10 -21 0 -8 -4 -14 -10 -14 -5 0 -10 19 -11 43 -1 34 -2 37 -8 17 -6
-22 -8 -23 -14 -7 -4 10 -7 33 -7 50 0 24 -3 28 -10 17 -8 -12 -10 -9 -10 12
0 15 -5 39 -10 54 -9 23 -7 33 11 58 l22 31 -28 -25 c-30 -27 -31 -22 -10 35
l8 20 -16 -20 c-9 -11 -17 -18 -18 -15 -10 42 -6 109 8 130 l16 25 -23 -20
-23 -20 6 30 c5 28 2 32 -51 63 -71 41 -118 79 -110 87 3 4 37 -14 75 -39 37
-25 72 -46 78 -46 5 0 19 13 29 28 11 15 13 21 6 15 -35 -32 -41 -1 -8 34 17
19 19 23 5 17 -25 -9 -22 24 5 53 17 19 19 23 5 17 -40 -15 -9 42 33 60 8 3 3
4 -11 1 -25 -4 -25 -4 -15 40 6 25 13 45 16 45 3 0 20 -26 38 -57z m466 11
c19 -7 22 -44 4 -44 -7 0 -5 -5 4 -12 18 -15 36 -64 19 -54 -5 4 -4 -6 4 -21
18 -33 19 -57 4 -47 -8 5 -8 1 0 -14 6 -11 11 -28 11 -37 0 -15 -1 -15 -16 -1
-8 9 -19 16 -24 16 -5 0 5 -14 22 -31 l31 -30 69 46 c39 26 73 43 76 40 8 -7
-28 -36 -102 -81 -42 -25 -52 -36 -54 -62 l-3 -33 -20 23 c-17 20 -16 18 2
-16 18 -30 20 -42 11 -56 -6 -10 -8 -27 -5 -39 6 -24 -14 -29 -23 -6 -4 8 -11
15 -17 15 -5 0 -3 -8 6 -18 10 -10 17 -25 17 -34 0 -24 -21 -78 -29 -74 -4 3
-5 -12 -4 -32 l4 -37 -16 28 c-22 38 -27 34 -10 -8 12 -26 12 -40 4 -62 l-12
-28 -8 32 c-5 18 -14 35 -20 39 -8 4 -8 0 0 -14 13 -25 15 -102 2 -102 -5 0
-13 -9 -16 -20 -4 -11 -10 -18 -15 -15 -4 3 -10 -5 -14 -18 -5 -18 -8 -20 -16
-7 -8 12 -10 11 -10 -6 0 -20 -17 -34 -42 -34 -16 0 0 63 47 184 41 107 67
199 78 279 3 20 5 37 3 37 -1 0 -35 -11 -74 -25 -73 -26 -118 -32 -107 -16 3
5 20 13 38 17 31 6 31 7 9 15 -38 14 -15 28 36 23 26 -3 59 -1 75 5 26 10 27
14 27 77 0 37 -5 95 -11 130 -10 58 -9 64 13 98 24 38 27 40 52 30z m-326
-585 c16 1 21 -3 16 -12 -5 -9 -4 -9 5 -1 7 7 29 8 56 4 25 -4 45 -3 45 1 0 4
8 7 18 7 9 -1 27 2 40 6 14 5 22 3 22 -4 0 -19 -20 -51 -29 -46 -4 3 -6 -6 -3
-21 3 -18 1 -24 -6 -19 -8 5 -10 1 -6 -9 4 -8 2 -21 -4 -28 -5 -6 -13 -27 -17
-44 -3 -18 -11 -33 -15 -33 -5 0 -7 -7 -4 -15 7 -18 -7 -20 -25 -2 -11 9 -12
9 -7 0 5 -10 -4 -12 -34 -11 -30 1 -39 5 -36 15 3 7 1 13 -4 13 -4 0 -12 15
-15 33 -4 17 -12 38 -17 44 -6 7 -8 20 -4 28 4 10 2 14 -6 9 -7 -5 -9 1 -6 20
3 15 3 24 0 21 -5 -4 -32 40 -32 52 0 3 10 2 23 -2 12 -4 32 -6 45 -6z m-122
-197 c-9 -9 -37 8 -31 18 5 8 11 7 21 -1 8 -6 12 -14 10 -17z m414 7 c0 -5
-10 -9 -21 -9 -18 0 -19 2 -9 15 12 15 30 12 30 -6z"/>
<path d="M1485 4400 c10 -11 20 -20 23 -20 3 0 -3 9 -13 20 -10 11 -20 20 -23
20 -3 0 3 -9 13 -20z"/>
<path d="M1450 4356 c0 -2 8 -10 18 -17 15 -13 16 -12 3 4 -13 16 -21 21 -21
13z"/>
<path d="M1438 3953 c7 -3 16 -2 19 1 4 3 -2 6 -13 5 -11 0 -14 -3 -6 -6z"/>
<path d="M1470 3880 c-23 -7 -23 -8 -3 -9 12 -1 25 4 28 9 3 6 5 10 3 9 -2 -1
-14 -5 -28 -9z"/>
<path d="M2770 4910 c0 -19 3 -21 12 -12 9 9 9 15 0 24 -9 9 -12 7 -12 -12z"/>
<path d="M2952 4807 c-28 -30 -28 -40 0 -31 19 6 21 5 11 -8 -23 -27 9 -38 41
-15 17 13 17 15 2 45 -20 38 -26 39 -54 9z"/>
<path d="M2881 4784 c0 -11 3 -14 6 -6 3 7 2 16 -1 19 -3 4 -6 -2 -5 -13z"/>
<path d="M2848 4063 c7 -3 16 -2 19 1 4 3 -2 6 -13 5 -11 0 -14 -3 -6 -6z"/>
<path d="M2410 3968 c-12 -22 -12 -22 6 -6 10 10 15 20 12 24 -4 3 -12 -5 -18
-18z"/>
<path d="M2828 3943 c7 -3 16 -2 19 1 4 3 -2 6 -13 5 -11 0 -14 -3 -6 -6z"/>
<path d="M2788 3868 c6 -6 18 -8 28 -6 14 3 12 5 -9 10 -19 3 -25 2 -19 -4z"/>
<path d="M1431 5150 c0 -8 4 -24 9 -35 5 -13 9 -14 9 -5 0 8 -4 24 -9 35 -5
13 -9 14 -9 5z"/>
<path d="M2117 5018 c-37 -66 -40 -70 -68 -64 -27 5 -29 3 -29 -24 l0 -30 135
0 135 0 0 35 c0 35 0 35 -24 19 l-25 -16 -35 70 c-20 39 -39 73 -43 75 -5 3
-25 -26 -46 -65z"/>
<path d="M1384 4925 c-19 -14 -18 -14 2 -36 26 -26 43 -19 36 16 -6 33 -15 38
-38 20z"/>
<path d="M960 4183 c-18 -3 -30 -14 -38 -35 -13 -36 -14 -33 16 -42 16 -5 22
-3 22 8 0 8 5 18 11 22 8 5 10 -1 6 -18 -5 -19 -2 -28 9 -32 26 -10 42 -7 48
10 7 19 -24 94 -39 92 -5 0 -21 -3 -35 -5z"/>
<path d="M1276 4801 c-16 -18 -16 -20 6 -35 32 -23 41 -20 33 12 -9 39 -19 45
-39 23z"/>
<path d="M2028 4783 c7 -3 16 -2 19 1 4 3 -2 6 -13 5 -11 0 -14 -3 -6 -6z"/>
<path d="M1943 4723 c15 -2 39 -2 55 0 15 2 2 4 -28 4 -30 0 -43 -2 -27 -4z"/>
<path d="M2298 4723 c12 -2 30 -2 40 0 9 3 -1 5 -23 4 -22 0 -30 -2 -17 -4z"/>
<path d="M1903 4653 c9 -2 25 -2 35 0 9 3 1 5 -18 5 -19 0 -27 -2 -17 -5z"/>
<path d="M1973 4653 c9 -2 23 -2 30 0 6 3 -1 5 -18 5 -16 0 -22 -2 -12 -5z"/>
<path d="M2313 4653 c15 -2 37 -2 50 0 12 2 0 4 -28 4 -27 0 -38 -2 -22 -4z"/>
<path d="M1858 4643 c7 -3 16 -2 19 1 4 3 -2 6 -13 5 -11 0 -14 -3 -6 -6z"/>
<path d="M1908 4583 c12 -2 30 -2 40 0 9 3 -1 5 -23 4 -22 0 -30 -2 -17 -4z"/>
<path d="M1848 4573 c7 -3 16 -2 19 1 4 3 -2 6 -13 5 -11 0 -14 -3 -6 -6z"/>
<path d="M1988 4573 c7 -3 16 -2 19 1 4 3 -2 6 -13 5 -11 0 -14 -3 -6 -6z"/>
<path d="M2303 4573 c9 -2 23 -2 30 0 6 3 -1 5 -18 5 -16 0 -22 -2 -12 -5z"/>
<path d="M2393 4573 c9 -2 23 -2 30 0 6 3 -1 5 -18 5 -16 0 -22 -2 -12 -5z"/>
<path d="M1897 4513 c18 -2 50 -2 70 0 21 2 7 4 -32 4 -38 0 -55 -2 -38 -4z"/>
<path d="M2323 4513 c9 -2 25 -2 35 0 9 3 1 5 -18 5 -19 0 -27 -2 -17 -5z"/>
<path d="M1828 4503 c7 -3 16 -2 19 1 4 3 -2 6 -13 5 -11 0 -14 -3 -6 -6z"/>
<path d="M2258 4503 c7 -3 16 -2 19 1 4 3 -2 6 -13 5 -11 0 -14 -3 -6 -6z"/>
<path d="M2428 4503 c7 -3 16 -2 19 1 4 3 -2 6 -13 5 -11 0 -14 -3 -6 -6z"/>
<path d="M1735 4470 c-3 -6 1 -7 9 -4 18 7 21 14 7 14 -6 0 -13 -4 -16 -10z"/>
<path d="M1923 4433 c9 -2 25 -2 35 0 9 3 1 5 -18 5 -19 0 -27 -2 -17 -5z"/>
<path d="M1848 4423 c7 -3 16 -2 19 1 4 3 -2 6 -13 5 -11 0 -14 -3 -6 -6z"/>
<path d="M1998 4423 c7 -3 16 -2 19 1 4 3 -2 6 -13 5 -11 0 -14 -3 -6 -6z"/>
<path d="M2278 4423 c6 -2 18 -2 25 0 6 3 1 5 -13 5 -14 0 -19 -2 -12 -5z"/>
<path d="M2398 4423 c7 -3 16 -2 19 1 4 3 -2 6 -13 5 -11 0 -14 -3 -6 -6z"/>
<path d="M1908 4343 c17 -2 47 -2 65 0 17 2 3 4 -33 4 -36 0 -50 -2 -32 -4z"/>
<path d="M2323 4343 c15 -2 37 -2 50 0 12 2 0 4 -28 4 -27 0 -38 -2 -22 -4z"/>
<path d="M1838 4333 c7 -3 16 -2 19 1 4 3 -2 6 -13 5 -11 0 -14 -3 -6 -6z"/>
<path d="M2018 4333 c7 -3 16 -2 19 1 4 3 -2 6 -13 5 -11 0 -14 -3 -6 -6z"/>
<path d="M2258 4333 c7 -3 16 -2 19 1 4 3 -2 6 -13 5 -11 0 -14 -3 -6 -6z"/>
<path d="M2418 4333 c7 -3 16 -2 19 1 4 3 -2 6 -13 5 -11 0 -14 -3 -6 -6z"/>
<path d="M2313 4283 c9 -2 23 -2 30 0 6 3 -1 5 -18 5 -16 0 -22 -2 -12 -5z"/>
<path d="M2368 4273 c6 -2 18 -2 25 0 6 3 1 5 -13 5 -14 0 -19 -2 -12 -5z"/>
<path d="M2456 4245 c10 -8 24 -14 29 -14 6 0 1 6 -9 14 -11 8 -24 15 -30 15
-5 0 -1 -7 10 -15z"/>
<path d="M1943 4223 c9 -2 25 -2 35 0 9 3 1 5 -18 5 -19 0 -27 -2 -17 -5z"/>
<path d="M2318 4223 c7 -3 16 -2 19 1 4 3 -2 6 -13 5 -11 0 -14 -3 -6 -6z"/>
<path d="M2358 4213 c7 -3 16 -2 19 1 4 3 -2 6 -13 5 -11 0 -14 -3 -6 -6z"/>
<path d="M1910 4160 c-18 -12 -2 -12 25 0 13 6 15 9 5 9 -8 0 -22 -4 -30 -9z"/>
<path d="M2318 4163 c6 -2 18 -2 25 0 6 3 1 5 -13 5 -14 0 -19 -2 -12 -5z"/>
<path d="M3096 3973 c-6 -14 -5 -15 5 -6 7 7 10 15 7 18 -3 3 -9 -2 -12 -12z"/>
<path d="M1120 3906 c0 -2 8 -10 18 -17 15 -13 16 -12 3 4 -13 16 -21 21 -21
13z"/>
<path d="M2012 3894 c1 -9 9 -19 16 -22 9 -3 13 2 10 14 -1 9 -9 19 -16 22 -9
3 -13 -2 -10 -14z"/>
<path d="M2243 3895 c-3 -9 -3 -18 0 -21 9 -9 27 6 27 22 0 19 -19 18 -27 -1z"/>
<path d="M1090 3796 c0 -2 8 -10 18 -17 15 -13 16 -12 3 4 -13 16 -21 21 -21
13z"/>
<path d="M2269 3723 c-13 -16 -12 -17 4 -4 16 13 21 21 13 21 -2 0 -10 -8 -17
-17z"/>
<path d="M3180 3719 c-22 -18 -22 -19 -3 -10 12 6 25 16 28 21 9 15 3 12 -25
-11z"/>
<path d="M1774 3708 c-10 -12 -13 -18 -7 -14 10 6 11 1 2 -21 -6 -15 -15 -53
-20 -83 l-8 -55 3 55 c2 30 6 64 10 75 3 11 -1 4 -10 -15 -12 -25 -15 -52 -11
-95 8 -109 42 -144 139 -143 l46 0 6 41 c19 130 19 163 -3 205 -34 68 -109 93
-147 50z m151 -113 c4 -23 0 -65 -9 -100 -13 -48 -15 -51 -9 -15 11 79 7 147
-10 174 -9 14 -17 29 -17 33 0 24 40 -58 45 -92z m-99 28 c-4 -16 -9 -46 -12
-68 -9 -64 -14 -73 -25 -52 -7 12 -5 36 5 78 9 33 16 63 16 65 0 2 5 4 11 4 7
0 9 -10 5 -27z m34 2 c0 -8 -4 -15 -10 -15 -5 0 -10 7 -10 15 0 8 5 15 10 15
6 0 10 -7 10 -15z"/>
<path d="M2410 3711 c-20 -11 -44 -36 -58 -62 -24 -46 -25 -70 -5 -189 l8 -45
59 -3 c67 -3 97 15 116 73 10 29 -2 116 -25 190 -4 14 -2 13 9 -5 8 -14 15
-20 16 -15 0 12 -29 57 -44 67 -18 12 -39 9 -76 -11z m-30 -63 c-21 -36 -26
-97 -11 -161 5 -20 5 -39 1 -42 -8 -5 -20 68 -20 127 0 41 25 108 41 108 5 0
0 -15 -11 -32z m107 -105 c5 -45 3 -55 -8 -51 -9 3 -16 25 -19 59 -3 30 -9 60
-13 67 -5 6 -5 17 -1 23 11 19 35 -37 41 -98z m-61 70 c-10 -10 -19 5 -10 18
6 11 8 11 12 0 2 -7 1 -15 -2 -18z"/>
<path d="M1701 3644 c0 -11 3 -14 6 -6 3 7 2 16 -1 19 -3 4 -6 -2 -5 -13z"/>
<path d="M3170 3650 c-9 -6 -10 -10 -3 -10 6 0 15 5 18 10 8 12 4 12 -15 0z"/>
<path d="M1074 3625 c11 -8 24 -15 30 -15 5 0 1 7 -10 15 -10 8 -23 14 -29 14
-5 0 -1 -6 9 -14z"/>
<path d="M2531 3624 c0 -11 3 -14 6 -6 3 7 2 16 -1 19 -3 4 -6 -2 -5 -13z"/>
<path d="M2573 3590 c0 -25 2 -35 4 -22 2 12 2 32 0 45 -2 12 -4 2 -4 -23z"/>
<path d="M2020 3583 c0 -10 7 -27 15 -37 20 -26 38 -8 29 28 -7 30 -44 37 -44
9z m34 -9 c4 -9 4 -19 2 -21 -8 -8 -26 8 -26 23 0 19 16 18 24 -2z"/>
<path d="M2217 3593 c-9 -8 -9 -58 -1 -66 11 -10 46 42 40 58 -6 16 -28 20
-39 8z m33 -10 c0 -5 -7 -17 -15 -27 -15 -20 -15 -20 -15 0 0 12 3 24 7 27 9
9 23 9 23 0z"/>
<path d="M2542 3570 c0 -14 2 -19 5 -12 2 6 2 18 0 25 -3 6 -5 1 -5 -13z"/>
<path d="M1110 3500 c8 -5 24 -10 34 -10 26 0 18 6 -19 14 -22 5 -26 4 -15 -4z"/>
<path d="M1158 3393 c6 -2 18 -2 25 0 6 3 1 5 -13 5 -14 0 -19 -2 -12 -5z"/>
<path d="M2093 3354 c-10 -14 -33 -44 -51 -66 -26 -32 -32 -49 -30 -77 3 -30
7 -36 29 -39 15 -2 32 5 44 18 26 28 73 26 105 -5 30 -29 57 -25 70 9 9 26 -3
60 -38 102 -15 18 -35 44 -45 58 -23 34 -60 34 -84 0z"/>
<path d="M1168 3343 c7 -3 16 -2 19 1 4 3 -2 6 -13 5 -11 0 -14 -3 -6 -6z"/>
<path d="M1855 3340 l-30 -8 30 0 c17 0 39 3 50 8 l20 9 -20 -1 c-11 0 -33 -4
-50 -8z"/>
<path d="M2360 3340 c14 -9 109 -15 99 -6 -2 2 -29 6 -59 9 -37 4 -50 3 -40
-3z"/>
<path d="M3068 3323 c7 -3 16 -2 19 1 4 3 -2 6 -13 5 -11 0 -14 -3 -6 -6z"/>
<path d="M1265 3295 c-16 -8 -23 -14 -14 -15 8 0 24 7 35 15 23 18 18 18 -21
0z"/>
<path d="M2408 3283 c12 -2 30 -2 40 0 9 3 -1 5 -23 4 -22 0 -30 -2 -17 -4z"/>
<path d="M2890 3215 c13 -14 26 -25 28 -25 3 0 -5 11 -18 25 -13 14 -26 25
-28 25 -3 0 5 -11 18 -25z"/>
<path d="M2571 3214 c0 -11 3 -14 6 -6 3 7 2 16 -1 19 -3 4 -6 -2 -5 -13z"/>
<path d="M2284 3144 c-18 -14 -18 -15 4 -4 12 6 22 13 22 15 0 8 -5 6 -26 -11z"/>
<path d="M1970 3146 c0 -2 7 -7 16 -10 8 -3 12 -2 9 4 -6 10 -25 14 -25 6z"/>
<path d="M2300 3110 c-9 -6 -10 -10 -3 -10 6 0 15 5 18 10 8 12 4 12 -15 0z"/>
<path d="M2174 2925 c-9 -13 -14 -29 -12 -34 1 -5 11 6 20 25 20 40 16 45 -8
9z"/>
<path d="M1900 2756 c0 -2 8 -10 18 -17 15 -13 16 -12 3 4 -13 16 -21 21 -21
13z"/>
<path d="M2199 1643 c-13 -17 -13 -17 6 -3 11 8 22 16 24 17 2 2 0 3 -6 3 -6
0 -17 -8 -24 -17z"/>
<path d="M2010 1496 c0 -2 7 -7 16 -10 8 -3 12 -2 9 4 -6 10 -25 14 -25 6z"/>
<path d="M2015 1310 c21 -24 26 -25 19 -6 -3 8 -13 17 -22 21 -13 5 -13 2 3
-15z"/>
<path d="M1179 4640 c23 -20 41 -26 41 -14 0 11 -34 33 -50 33 -10 0 -8 -6 9
-19z"/>
<path d="M1100 4480 c19 -13 30 -13 30 0 0 6 -10 10 -22 10 -19 0 -20 -2 -8
-10z"/>
<path d="M3140 4420 c0 -5 5 -10 11 -10 5 0 7 5 4 10 -3 6 -8 10 -11 10 -2 0
-4 -4 -4 -10z"/>
<path d="M3207 4419 c-12 -7 -16 -17 -11 -32 6 -21 5 -21 -11 -6 -16 16 -19
16 -45 1 -27 -16 -28 -17 -13 -43 l16 -26 59 35 c40 23 57 40 54 49 -4 8 -6
19 -6 24 0 12 -21 11 -43 -2z"/>
<path d="M1019 4364 c-10 -13 -10 -17 2 -25 31 -19 54 -6 38 22 -12 23 -22 24
-40 3z"/>
<path d="M3272 4284 c-18 -13 -21 -19 -11 -30 13 -16 -2 -19 -18 -3 -8 8 -17
8 -32 0 -24 -13 -26 -23 -10 -52 10 -19 11 -19 59 8 44 25 50 32 50 61 0 36
-6 39 -38 16z"/>
<path d="M610 3906 c0 -2 8 -10 18 -17 15 -13 16 -12 3 4 -13 16 -21 21 -21
13z"/>
<path d="M463 3563 c9 -2 25 -2 35 0 9 3 1 5 -18 5 -19 0 -27 -2 -17 -5z"/>
<path d="M599 3283 l-24 -28 28 24 c25 23 32 31 24 31 -2 0 -14 -12 -28 -27z"/>
<path d="M649 3253 c-13 -16 -12 -17 4 -4 9 7 17 15 17 17 0 8 -8 3 -21 -13z"/>
<path d="M699 3223 c-13 -16 -12 -17 4 -4 9 7 17 15 17 17 0 8 -8 3 -21 -13z"/>
<path d="M675 3189 c-4 -6 -5 -12 -2 -15 2 -3 7 2 10 11 7 17 1 20 -8 4z"/>
<path d="M1053 3013 c9 -2 23 -2 30 0 6 3 -1 5 -18 5 -16 0 -22 -2 -12 -5z"/>
<path d="M3699 3833 c-13 -16 -12 -17 4 -4 16 13 21 21 13 21 -2 0 -10 -8 -17
-17z"/>
<path d="M3803 3663 c9 -2 25 -2 35 0 9 3 1 5 -18 5 -19 0 -27 -2 -17 -5z"/>
<path d="M3793 3603 c9 -2 25 -2 35 0 9 3 1 5 -18 5 -19 0 -27 -2 -17 -5z"/>
<path d="M3763 3483 c9 -2 23 -2 30 0 6 3 -1 5 -18 5 -16 0 -22 -2 -12 -5z"/>
<path d="M3655 3270 c10 -11 20 -20 23 -20 3 0 -3 9 -13 20 -10 11 -20 20 -23
20 -3 0 3 -9 13 -20z"/>
<path d="M3600 3246 c0 -2 8 -10 18 -17 15 -13 16 -12 3 4 -13 16 -21 21 -21
13z"/>
<path d="M3550 3216 c0 -2 8 -10 18 -17 15 -13 16 -12 3 4 -13 16 -21 21 -21
13z"/>
<path d="M3521 3154 c13 -17 26 -30 28 -27 3 2 -8 16 -24 31 l-28 27 24 -31z"/>
<path d="M3228 3063 c7 -3 16 -2 19 1 4 3 -2 6 -13 5 -11 0 -14 -3 -6 -6z"/>
<path d="M3311 3007 c2 -1 15 -11 29 -22 l25 -20 -19 23 c-11 12 -24 22 -29
22 -6 0 -8 -1 -6 -3z"/>
<path d="M3270 2967 c0 -3 12 -12 26 -22 15 -9 23 -12 20 -6 -7 11 -46 35 -46
28z"/>
<path d="M1511 3684 c0 -11 3 -14 6 -6 3 7 2 16 -1 19 -3 4 -6 -2 -5 -13z"/>
<path d="M1479 3553 c-13 -16 -12 -17 4 -4 9 7 17 15 17 17 0 8 -8 3 -21 -13z"/>
<path d="M2931 3754 c0 -11 3 -14 6 -6 3 7 2 16 -1 19 -3 4 -6 -2 -5 -13z"/>
<path d="M2882 3720 c0 -14 2 -19 5 -12 2 6 2 18 0 25 -3 6 -5 1 -5 -13z"/>
<path d="M2932 3710 c0 -14 2 -19 5 -12 2 6 2 18 0 25 -3 6 -5 1 -5 -13z"/>
<path d="M2762 3685 c0 -16 2 -22 5 -12 2 9 2 23 0 30 -3 6 -5 -1 -5 -18z"/>
<path d="M2822 3690 c0 -14 2 -19 5 -12 2 6 2 18 0 25 -3 6 -5 1 -5 -13z"/>
<path d="M1240 3096 c0 -2 9 -6 20 -9 11 -3 18 -1 14 4 -5 9 -34 13 -34 5z"/>
<path d="M1215 3030 c27 -12 43 -12 25 0 -8 5 -22 9 -30 9 -10 0 -8 -3 5 -9z"/>
<path d="M1371 3013 c7 -12 15 -20 18 -17 3 2 -3 12 -13 22 -17 16 -18 16 -5
-5z"/>
<path d="M1160 2890 c8 -5 20 -10 25 -10 6 0 3 5 -5 10 -8 5 -19 10 -25 10 -5
0 -3 -5 5 -10z"/>
<path d="M1120 2826 c0 -2 9 -6 20 -9 11 -3 18 -1 14 4 -5 9 -34 13 -34 5z"/>
<path d="M1098 2753 c6 -2 18 -2 25 0 6 3 1 5 -13 5 -14 0 -19 -2 -12 -5z"/>
<path d="M1063 2573 c9 -2 25 -2 35 0 9 3 1 5 -18 5 -19 0 -27 -2 -17 -5z"/>
<path d="M1088 2443 c7 -3 16 -2 19 1 4 3 -2 6 -13 5 -11 0 -14 -3 -6 -6z"/>
<path d="M1274 1895 c-9 -14 -15 -27 -13 -30 3 -2 12 10 21 26 21 36 15 39 -8
4z"/>
<path d="M2980 3070 c-9 -6 -10 -10 -3 -10 6 0 15 5 18 10 8 12 4 12 -15 0z"/>
<path d="M3015 3010 c-3 -6 1 -7 9 -4 18 7 21 14 7 14 -6 0 -13 -4 -16 -10z"/>
<path d="M3090 2880 c-11 -8 -7 -9 15 -4 37 8 45 14 19 14 -10 0 -26 -5 -34
-10z"/>
<path d="M3158 2473 c6 -2 18 -2 25 0 6 3 1 5 -13 5 -14 0 -19 -2 -12 -5z"/>
<path d="M3182 2366 c16 -8 34 -18 40 -21 7 -4 2 3 -11 14 -13 12 -31 21 -40
21 -10 0 -5 -6 11 -14z"/>
<path d="M3025 1970 c10 -11 20 -20 23 -20 3 0 -3 9 -13 20 -10 11 -20 20 -23
20 -3 0 3 -9 13 -20z"/>
<path d="M2860 1776 c0 -2 8 -10 18 -17 15 -13 16 -12 3 4 -13 16 -21 21 -21
13z"/>
<path d="M2830 1736 c0 -2 8 -10 18 -17 15 -13 16 -12 3 4 -13 16 -21 21 -21
13z"/>
<path d="M1540 3046 c0 -2 7 -7 16 -10 8 -3 12 -2 9 4 -6 10 -25 14 -25 6z"/>
<path d="M1488 2983 c7 -3 16 -2 19 1 4 3 -2 6 -13 5 -11 0 -14 -3 -6 -6z"/>
<path d="M1565 2770 c10 -11 20 -20 23 -20 3 0 -3 9 -13 20 -10 11 -20 20 -23
20 -3 0 3 -9 13 -20z"/>
<path d="M1423 2713 c9 -2 25 -2 35 0 9 3 1 5 -18 5 -19 0 -27 -2 -17 -5z"/>
<path d="M1458 2573 c7 -3 16 -2 19 1 4 3 -2 6 -13 5 -11 0 -14 -3 -6 -6z"/>
<path d="M1468 2503 c6 -2 18 -2 25 0 6 3 1 5 -13 5 -14 0 -19 -2 -12 -5z"/>
<path d="M1545 2280 c-3 -6 1 -7 9 -4 18 7 21 14 7 14 -6 0 -13 -4 -16 -10z"/>
<path d="M1705 1970 c-3 -6 1 -7 9 -4 18 7 21 14 7 14 -6 0 -13 -4 -16 -10z"/>
<path d="M1798 1693 c7 -3 16 -2 19 1 4 3 -2 6 -13 5 -11 0 -14 -3 -6 -6z"/>
<path d="M2620 2975 c-13 -14 -22 -27 -19 -29 2 -2 14 10 27 25 29 36 24 38
-8 4z"/>
<path d="M2740 2970 c-8 -5 -10 -10 -5 -10 6 0 17 5 25 10 8 5 11 10 5 10 -5
0 -17 -5 -25 -10z"/>
<path d="M2798 2843 c12 -2 30 -2 40 0 9 3 -1 5 -23 4 -22 0 -30 -2 -17 -4z"/>
<path d="M2828 2703 c7 -3 16 -2 19 1 4 3 -2 6 -13 5 -11 0 -14 -3 -6 -6z"/>
<path d="M2840 2556 c0 -3 9 -10 20 -16 11 -6 20 -8 20 -6 0 3 -9 10 -20 16
-11 6 -20 8 -20 6z"/>
<path d="M2778 2493 c7 -3 16 -2 19 1 4 3 -2 6 -13 5 -11 0 -14 -3 -6 -6z"/>
<path d="M2690 2276 c0 -2 7 -7 16 -10 8 -3 12 -2 9 4 -6 10 -25 14 -25 6z"/>
<path d="M2610 2086 c0 -2 8 -10 18 -17 15 -13 16 -12 3 4 -13 16 -21 21 -21
13z"/>
<path d="M2428 1643 c6 -2 18 -2 25 0 6 3 1 5 -13 5 -14 0 -19 -2 -12 -5z"/>
<path d="M2020 2643 c0 -10 6 -26 14 -35 11 -16 14 -14 29 17 l17 35 -30 0
c-22 0 -30 -5 -30 -17z"/>
<path d="M2105 2630 c18 -35 30 -38 45 -9 7 11 14 18 17 15 3 -3 -2 -17 -11
-31 -14 -22 -15 -26 -2 -31 8 -3 23 -4 34 -2 20 3 20 3 0 46 -19 39 -23 42
-59 42 l-40 0 16 -30z"/>
<path d="M2196 2638 c14 -47 21 -53 34 -29 15 29 6 51 -20 51 -17 0 -20 -4
-14 -22z"/>
<path d="M1982 2609 l-21 -34 30 -3 c41 -4 45 2 28 40 l-15 31 -22 -34z"/>
<path d="M2067 2605 c-16 -35 -16 -35 6 -35 38 0 46 12 27 42 l-16 28 -17 -35z"/>
<path d="M2248 2624 c-3 -10 -9 -27 -13 -36 -6 -15 -1 -18 29 -18 39 0 39 6 3
54 -14 19 -14 19 -19 0z"/>
<path d="M1983 2536 c9 -13 39 -60 68 -105 72 -114 73 -111 17 47 -30 82 -30
82 -65 82 -35 0 -35 0 -20 -24z"/>
<path d="M2082 2473 c17 -49 32 -90 34 -92 2 -2 4 37 4 87 l0 92 -35 0 -34 0
31 -87z"/>
<path d="M2138 2466 c-2 -55 1 -92 6 -89 5 4 7 -4 4 -15 -4 -12 -5 -22 -3 -22
3 0 125 182 139 208 5 8 -3 12 -27 12 -34 0 -35 -1 -70 -92 -44 -113 -49 -105
-7 10 l30 82 -34 0 -35 0 -3 -94z"/>
<path d="M505 2390 c10 -11 20 -20 23 -20 3 0 -3 9 -13 20 -10 11 -20 20 -23
20 -3 0 3 -9 13 -20z"/>
<path d="M441 2367 c2 -1 15 -11 29 -22 l25 -20 -19 23 c-11 12 -24 22 -29 22
-6 0 -8 -1 -6 -3z"/>
<path d="M430 2246 c0 -2 9 -6 20 -9 11 -3 18 -1 14 4 -5 9 -34 13 -34 5z"/>
<path d="M423 2193 c9 -2 23 -2 30 0 6 3 -1 5 -18 5 -16 0 -22 -2 -12 -5z"/>
<path d="M448 2143 c7 -3 16 -2 19 1 4 3 -2 6 -13 5 -11 0 -14 -3 -6 -6z"/>
<path d="M3739 2363 c-13 -16 -12 -17 4 -4 16 13 21 21 13 21 -2 0 -10 -8 -17
-17z"/>
<path d="M3818 2343 c7 -3 16 -2 19 1 4 3 -2 6 -13 5 -11 0 -14 -3 -6 -6z"/>
<path d="M3779 2323 c-13 -16 -12 -17 4 -4 16 13 21 21 13 21 -2 0 -10 -8 -17
-17z"/>
<path d="M3823 2223 c9 -2 25 -2 35 0 9 3 1 5 -18 5 -19 0 -27 -2 -17 -5z"/>
<path d="M3808 2173 c6 -2 18 -2 25 0 6 3 1 5 -13 5 -14 0 -19 -2 -12 -5z"/>
<path d="M1616 1595 c-3 -9 -6 -22 -5 -28 0 -7 5 -1 10 12 5 13 8 26 5 28 -2
2 -6 -3 -10 -12z"/>
<path d="M3311 2004 c0 -11 3 -14 6 -6 3 7 2 16 -1 19 -3 4 -6 -2 -5 -13z"/>
<path d="M3406 2004 c-4 -11 2 -27 20 -45 l27 -29 19 32 c22 34 16 45 -28 54
-24 5 -33 2 -38 -12z"/>
<path d="M574 2236 c11 -9 24 -16 30 -16 12 0 7 5 -24 19 -24 11 -24 11 -6 -3z"/>
<path d="M1578 623 c6 -2 18 -2 25 0 6 3 1 5 -13 5 -14 0 -19 -2 -12 -5z"/>
<path d="M1598 593 c6 -2 18 -2 25 0 6 3 1 5 -13 5 -14 0 -19 -2 -12 -5z"/>
<path d="M1548 583 c7 -3 16 -2 19 1 4 3 -2 6 -13 5 -11 0 -14 -3 -6 -6z"/>
<path d="M1779 383 c-13 -16 -12 -17 4 -4 16 13 21 21 13 21 -2 0 -10 -8 -17
-17z"/>
<path d="M1819 383 c-13 -16 -12 -17 4 -4 16 13 21 21 13 21 -2 0 -10 -8 -17
-17z"/>
<path d="M1839 363 c-13 -16 -12 -17 4 -4 16 13 21 21 13 21 -2 0 -10 -8 -17
-17z"/>
<path d="M3650 2205 c-14 -8 -20 -14 -14 -15 5 0 19 7 30 15 24 18 16 19 -16
0z"/>
<path d="M2648 613 c7 -3 16 -2 19 1 4 3 -2 6 -13 5 -11 0 -14 -3 -6 -6z"/>
<path d="M2578 593 c7 -3 16 -2 19 1 4 3 -2 6 -13 5 -11 0 -14 -3 -6 -6z"/>
<path d="M2628 583 c7 -3 16 -2 19 1 4 3 -2 6 -13 5 -11 0 -14 -3 -6 -6z"/>
<path d="M2430 455 c13 -14 26 -25 28 -25 3 0 -5 11 -18 25 -13 14 -26 25 -28
25 -3 0 5 -11 18 -25z"/>
<path d="M2380 356 c0 -2 8 -10 18 -17 15 -13 16 -12 3 4 -13 16 -21 21 -21
13z"/>
<path d="M2350 346 c0 -2 8 -10 18 -17 15 -13 16 -12 3 4 -13 16 -21 21 -21
13z"/>
<path d="M848 1755 c5 -26 17 -31 41 -16 21 13 5 41 -22 41 -20 0 -23 -4 -19
-25z"/>
<path d="M3260 1690 c-9 -6 -10 -10 -3 -10 6 0 15 5 18 10 8 12 4 12 -15 0z"/>
<path d="M995 1600 c-3 -5 -1 -10 4 -10 6 0 11 5 11 10 0 6 -2 10 -4 10 -3 0
-8 -4 -11 -10z"/>
<path d="M997 1446 c-11 -9 -14 -17 -8 -21 13 -7 51 12 51 25 0 14 -22 12 -43
-4z"/>
<path d="M1550 1460 c-9 -6 -10 -10 -3 -10 6 0 15 5 18 10 8 12 4 12 -15 0z"/>
<path d="M3117 1463 c-2 -10 -8 -25 -12 -34 -5 -13 7 -24 51 -48 31 -17 60
-28 65 -25 4 2 17 18 29 34 l21 29 -38 16 c-35 15 -39 15 -50 -1 -7 -9 -14
-22 -16 -28 -2 -6 -7 -8 -11 -5 -4 4 -1 18 5 33 14 29 13 31 -17 40 -16 5 -23
2 -27 -11z"/>
<path d="M1082 1311 c-12 -7 -11 -14 2 -40 14 -27 20 -30 36 -21 20 11 20 11
-2 40 -12 17 -22 30 -22 30 -1 0 -7 -4 -14 -9z"/>
<path d="M1175 1269 c-4 -6 -5 -12 -2 -15 2 -3 7 2 10 11 7 17 1 20 -8 4z"/>
<path d="M1780 1236 c0 -2 8 -10 18 -17 15 -13 16 -12 3 4 -13 16 -21 21 -21
13z"/>
<path d="M1751 1207 c2 -1 13 -9 24 -17 19 -14 19 -14 6 3 -7 9 -18 17 -24 17
-6 0 -8 -1 -6 -3z"/>
<path d="M1706 1147 c3 -10 9 -15 12 -12 3 3 0 11 -7 18 -10 9 -11 8 -5 -6z"/>
<path d="M2449 1223 c-13 -16 -12 -17 4 -4 9 7 17 15 17 17 0 8 -8 3 -21 -13z"/>
<path d="M2459 1183 c-13 -16 -12 -17 4 -4 16 13 21 21 13 21 -2 0 -10 -8 -17
-17z"/>
<path d="M2486 1153 c-6 -14 -5 -15 5 -6 7 7 10 15 7 18 -3 3 -9 -2 -12 -12z"/>
<path d="M1255 1151 c-3 -5 -1 -12 5 -16 5 -3 10 1 10 9 0 18 -6 21 -15 7z"/>
<path d="M1844 678 l-19 -23 23 19 c21 18 27 26 19 26 -2 0 -12 -10 -23 -22z"/>
<path d="M1869 543 c-13 -16 -12 -17 4 -4 16 13 21 21 13 21 -2 0 -10 -8 -17
-17z"/>
<path d="M1975 329 c-4 -6 -5 -12 -2 -15 2 -3 7 2 10 11 7 17 1 20 -8 4z"/>
<path d="M2361 573 c7 -12 15 -20 18 -17 3 2 -3 12 -13 22 -17 16 -18 16 -5
-5z"/>
<path d="M2340 556 c0 -2 8 -10 18 -17 15 -13 16 -12 3 4 -13 16 -21 21 -21
13z"/>
<path d="M2277 349 c4 -13 8 -18 11 -10 2 7 -1 18 -6 23 -8 8 -9 4 -5 -13z"/>
<path d="M2240 335 c0 -5 5 -17 10 -25 5 -8 10 -10 10 -5 0 6 -5 17 -10 25 -5
8 -10 11 -10 5z"/>
<path d="M2106 432 c-3 -5 1 -9 9 -9 8 0 12 4 9 9 -3 4 -7 8 -9 8 -2 0 -6 -4
-9 -8z"/>
</g>
</svg>
